<svg width="50" height="50" viewBox="0 0 50 50" fill="none" xmlns="http://www.w3.org/2000/svg">
<circle cx="24" cy="24" r="24" fill="#FC8D0B"/>
<path d="M27.7 33.575L19.275 25.175C19.175 25.075 19.1043 24.9667 19.063 24.85C19.021 24.7333 19 24.6083 19 24.475C19 24.3417 19.021 24.2167 19.063 24.1C19.1043 23.9833 19.175 23.875 19.275 23.775L27.7 15.35C27.9333 15.1167 28.225 15 28.575 15C28.925 15 29.225 15.125 29.475 15.375C29.725 15.625 29.85 15.9167 29.85 16.25C29.85 16.5833 29.725 16.875 29.475 17.125L22.125 24.475L29.475 31.825C29.7083 32.0583 29.825 32.3457 29.825 32.687C29.825 33.029 29.7 33.325 29.45 33.575C29.2 33.825 28.9083 33.95 28.575 33.95C28.2417 33.95 27.95 33.825 27.7 33.575Z" fill="white"/>
</svg>
