<svg width="48" height="48" viewBox="0 0 48 48" fill="none" xmlns="http://www.w3.org/2000/svg">
<circle r="24" transform="matrix(-1 0 0 1 24 24)" fill="#FC8D0B"/>
<path d="M20.3 33.575L28.725 25.175C28.825 25.075 28.8957 24.9667 28.937 24.85C28.979 24.7333 29 24.6083 29 24.475C29 24.3417 28.979 24.2167 28.937 24.1C28.8957 23.9833 28.825 23.875 28.725 23.775L20.3 15.35C20.0667 15.1167 19.775 15 19.425 15C19.075 15 18.775 15.125 18.525 15.375C18.275 15.625 18.15 15.9167 18.15 16.25C18.15 16.5833 18.275 16.875 18.525 17.125L25.875 24.475L18.525 31.825C18.2917 32.0583 18.175 32.3457 18.175 32.687C18.175 33.029 18.3 33.325 18.55 33.575C18.8 33.825 19.0917 33.95 19.425 33.95C19.7583 33.95 20.05 33.825 20.3 33.575Z" fill="white"/>
</svg>
