<svg width="24" height="24" viewBox="0 0 24 24" fill="none" xmlns="http://www.w3.org/2000/svg">
<path fill-rule="evenodd" clip-rule="evenodd" d="M18.0683 18.3738C13.4861 17.8998 10.5263 17.8554 5.94463 18.3624C5.79382 18.3799 5.65478 18.4525 5.55415 18.5662C5.45352 18.6799 5.39836 18.8267 5.39923 18.9786C5.39923 19.1502 5.47063 19.3128 5.59123 19.4256C8.09204 21.7452 9.98686 22.7934 11.8391 22.8C13.6979 22.8066 15.6947 21.7668 18.4007 19.4088C18.4867 19.3323 18.5486 19.2324 18.5788 19.1214C18.6091 19.0104 18.6065 18.8929 18.5713 18.7834C18.5361 18.6738 18.4698 18.5768 18.3805 18.5042C18.2912 18.4316 18.1828 18.3865 18.0683 18.3744V18.3738ZM5.81323 17.1696C10.4909 16.6518 13.5377 16.6986 18.1925 17.1804C18.5395 17.2166 18.8684 17.3532 19.1389 17.5734C19.4095 17.7937 19.6099 18.0881 19.7157 18.4205C19.8216 18.7529 19.8282 19.109 19.7347 19.4451C19.6413 19.7813 19.4519 20.0828 19.1897 20.313C16.4447 22.7058 14.1587 24.009 11.8355 24C9.50565 23.9916 7.32044 22.6662 4.77583 20.3052C4.59364 20.1355 4.4484 19.93 4.34919 19.7017C4.24998 19.4733 4.19893 19.227 4.19922 18.978C4.19835 18.5306 4.36255 18.0987 4.66036 17.7649C4.95818 17.4311 5.36868 17.2189 5.81323 17.169V17.1696Z" fill="white"/>
<path d="M16.7993 9.59983C16.7993 10.8729 16.2936 12.0938 15.3934 12.994C14.4932 13.8941 13.2723 14.3999 11.9992 14.3999C10.7262 14.3999 9.50529 13.8941 8.60511 12.994C7.70493 12.0938 7.19922 10.8729 7.19922 9.59983C7.19922 8.32679 7.70493 7.10588 8.60511 6.2057C9.50529 5.30552 10.7262 4.7998 11.9992 4.7998C13.2723 4.7998 14.4932 5.30552 15.3934 6.2057C16.2936 7.10588 16.7993 8.32679 16.7993 9.59983V9.59983Z" fill="white"/>
<path fill-rule="evenodd" clip-rule="evenodd" d="M12.0001 22.8001C17.9647 22.8001 22.8001 17.9647 22.8001 12.0001C22.8001 6.03543 17.9647 1.20001 12.0001 1.20001C6.03543 1.20001 1.20001 6.03543 1.20001 12.0001C1.20001 17.9647 6.03543 22.8001 12.0001 22.8001ZM12.0001 24.0001C18.6277 24.0001 24.0001 18.6277 24.0001 12.0001C24.0001 5.37243 18.6277 0 12.0001 0C5.37243 0 0 5.37243 0 12.0001C0 18.6277 5.37243 24.0001 12.0001 24.0001Z" fill="white"/>
<path d="M4.80078 18.9783C4.80078 18.3585 5.26398 17.8347 5.88079 17.7663C10.5098 17.2539 13.5128 17.3001 18.1317 17.7777C18.3623 17.8019 18.5809 17.8927 18.7608 18.0392C18.9406 18.1856 19.0739 18.3812 19.1445 18.6021C19.215 18.8231 19.2196 19.0598 19.1578 19.2833C19.096 19.5068 18.9704 19.7075 18.7965 19.8609C13.3454 24.6123 10.2302 24.5469 5.18478 19.8657C4.93878 19.6377 4.80078 19.3137 4.80078 18.9789V18.9783Z" fill="white"/>
<path fill-rule="evenodd" clip-rule="evenodd" d="M11.9992 13.1999C12.954 13.1999 13.8697 12.8206 14.5448 12.1454C15.22 11.4703 15.5993 10.5546 15.5993 9.59983C15.5993 8.64505 15.22 7.72937 14.5448 7.05423C13.8697 6.3791 12.954 5.99981 11.9992 5.99981C11.0445 5.99981 10.1288 6.3791 9.45365 7.05423C8.77851 7.72937 8.39923 8.64505 8.39923 9.59983C8.39923 10.5546 8.77851 11.4703 9.45365 12.1454C10.1288 12.8206 11.0445 13.1999 11.9992 13.1999V13.1999ZM11.9992 14.3999C13.2723 14.3999 14.4932 13.8941 15.3934 12.994C16.2936 12.0938 16.7993 10.8729 16.7993 9.59983C16.7993 8.32679 16.2936 7.10588 15.3934 6.2057C14.4932 5.30552 13.2723 4.7998 11.9992 4.7998C10.7262 4.7998 9.50529 5.30552 8.60511 6.2057C7.70493 7.10588 7.19922 8.32679 7.19922 9.59983C7.19922 10.8729 7.70493 12.0938 8.60511 12.994C9.50529 13.8941 10.7262 14.3999 11.9992 14.3999V14.3999Z" fill="white"/>
</svg>
