<svg width="36" height="34" viewBox="0 0 36 34" fill="none" xmlns="http://www.w3.org/2000/svg">
<path d="M34.3125 8.75H33.75V5.65625C33.75 2.76875 26.775 0.5 18 0.5C9.225 0.5 2.25 2.76875 2.25 5.65625V8.75H1.6875C0.755859 8.75 0 9.44223 0 10.2969V15.4531C0 16.3071 0.755859 17 1.6875 17H2.25V27.3125C2.25 28.4514 3.25758 29.375 4.5 29.375V31.4375C4.5 32.5764 5.50758 33.5 6.75 33.5H9C10.2424 33.5 11.25 32.5764 11.25 31.4375V29.375H24.75V31.4375C24.75 32.5764 25.7576 33.5 27 33.5H29.25C30.4924 33.5 31.5 32.5764 31.5 31.4375V29.375H31.95C33.075 29.375 33.75 28.55 33.75 27.725V17H34.3125C35.2441 17 36 16.3071 36 15.4531V10.2969C36 9.44223 35.2441 8.75 34.3125 8.75ZM11.25 5.14062C11.25 4.85574 11.5017 4.625 11.8125 4.625H24.1875C24.4983 4.625 24.75 4.85574 24.75 5.14062V6.17188C24.75 6.45676 24.4983 6.6875 24.1875 6.6875H11.8125C11.5017 6.6875 11.25 6.45676 11.25 6.17188V5.14062ZM7.875 26.2812C6.63258 26.2812 5.625 25.3576 5.625 24.2188C5.625 23.0799 6.63258 22.1562 7.875 22.1562C9.11742 22.1562 10.125 23.0799 10.125 24.2188C10.125 25.3576 9.11742 26.2812 7.875 26.2812ZM16.875 19.0625H9C7.75758 19.0625 6.75 18.1389 6.75 17V10.8125C6.75 9.67361 7.75758 8.75 9 8.75H16.875V19.0625ZM19.125 19.0625V8.75H27C28.2424 8.75 29.25 9.67361 29.25 10.8125V17C29.25 18.1389 28.2424 19.0625 27 19.0625H19.125ZM28.125 26.2812C26.8826 26.2812 25.875 25.3576 25.875 24.2188C25.875 23.0799 26.8826 22.1562 28.125 22.1562C29.3674 22.1562 30.375 23.0799 30.375 24.2188C30.375 25.3576 29.3674 26.2812 28.125 26.2812Z" fill="#FFA031"/>
</svg>
