<svg width="29" height="37" viewBox="0 0 29 37" fill="none" xmlns="http://www.w3.org/2000/svg">
<path d="M6.57034 0.5H22.4369C22.8429 0.5 24.9726 0.617 26.9736 2.9318C28.9438 5.2088 29 7.4516 29 7.7V27.5C29 28.4548 28.6181 29.3705 27.9383 30.0456C27.2584 30.7207 26.3364 31.1 25.375 31.1H23.5625L27.1875 36.5H22.9227L21.7138 34.7H7.21378L5.98671 36.5H1.81253L5.43753 31.1H3.62503C2.66362 31.1 1.74159 30.7207 1.06177 30.0456C0.381952 29.3705 3.43323e-05 28.4548 3.43323e-05 27.5V7.7C-0.00177765 7.3616 0.058033 5.1188 2.04634 2.903C4.14159 0.5666 6.32747 0.5 6.57034 0.5ZM18.125 4.1H10.875V7.7H18.125V4.1ZM22.6563 27.5C23.3776 27.4998 24.0692 27.215 24.5791 26.7083C25.0889 26.2016 25.3752 25.5145 25.375 24.7982C25.3748 24.0819 25.088 23.395 24.5778 22.8886C24.0676 22.3823 23.3757 22.098 22.6544 22.0982C21.9331 22.0984 21.2415 22.3832 20.7316 22.8899C20.2218 23.3966 19.9355 24.0837 19.9357 24.8C19.9359 25.5163 20.2227 26.2032 20.7329 26.7096C21.2431 27.2159 21.935 27.5002 22.6563 27.5ZM6.34378 27.5C7.06507 27.4998 7.75673 27.215 8.2666 26.7083C8.77646 26.2016 9.06276 25.5145 9.06252 24.7982C9.06228 24.0819 8.77552 23.395 8.26532 22.8886C7.75511 22.3823 7.06326 22.098 6.34196 22.0982C5.62067 22.0984 4.92901 22.3832 4.41915 22.8899C3.90928 23.3966 3.62298 24.0837 3.62322 24.8C3.62346 25.5163 3.91022 26.2032 4.42043 26.7096C4.93063 27.2159 5.62248 27.5002 6.34378 27.5ZM3.62503 18.5H25.375V11.3H3.62503V18.5Z" fill="#FFA031"/>
</svg>
