<svg width="18" height="15" viewBox="0 0 18 15" fill="none" xmlns="http://www.w3.org/2000/svg">
<path d="M12.569 8.62517L13.2642 9.32041C13.5454 9.03921 13.6295 8.61631 13.4773 8.24891C13.3252 7.8815 12.9666 7.64195 12.569 7.64195V8.62517ZM9.3726 11.8215L8.67736 11.1263H8.67736L9.3726 11.8215ZM9.3726 13.212L8.67736 13.9073L8.67736 13.9073L9.3726 13.212ZM10.7631 13.212L11.4583 13.9073L11.4583 13.9073L10.7631 13.212ZM15.3927 8.58238L15.1053 7.6421C14.9514 7.68915 14.8113 7.7733 14.6975 7.88714L15.3927 8.58238ZM15.5278 6.75405L14.8326 7.4493C14.9116 7.52833 15.0035 7.59331 15.1044 7.64145L15.5278 6.75405ZM10.7631 1.98932L11.4583 1.29408L11.4583 1.29408L10.7631 1.98932ZM9.3726 1.98932L8.67736 1.29408L8.67736 1.29408L9.3726 1.98932ZM9.3726 3.37981L8.67736 4.07505L8.67736 4.07505L9.3726 3.37981ZM12.6515 6.65872V7.64195C13.0492 7.64195 13.4077 7.40239 13.5599 7.03499C13.7121 6.66758 13.628 6.24468 13.3468 5.96348L12.6515 6.65872ZM2.32307 7.64195V5.6755C1.23703 5.6755 0.356622 6.55591 0.356622 7.64195H2.32307ZM2.32307 7.64195H0.356622C0.356622 8.72798 1.23703 9.60839 2.32307 9.60839L2.32307 7.64195ZM12.569 7.64195L2.32307 7.64195L2.32307 9.60839H12.569V7.64195ZM10.0678 12.5168L13.2642 9.32041L11.8737 7.92993L8.67736 11.1263L10.0678 12.5168ZM10.0678 12.5168V12.5168L8.67736 11.1263C7.90941 11.8942 7.90941 13.1393 8.67736 13.9073L10.0678 12.5168ZM10.0678 12.5168H10.0678L8.67736 13.9073C9.4453 14.6752 10.6904 14.6752 11.4583 13.9073L10.0678 12.5168ZM14.6975 7.88714L10.0678 12.5168L11.4583 13.9073L16.088 9.27763L14.6975 7.88714ZM15.1049 7.64195L15.1053 7.6421L15.6801 9.52267C16.4845 9.27682 17.0714 8.5292 17.0714 7.64195H15.1049ZM15.1044 7.64145L15.1049 7.64195H17.0714C17.0714 6.8572 16.6117 6.18178 15.9512 5.86666L15.1044 7.64145ZM10.0678 2.68456L14.8326 7.4493L16.2231 6.05881L11.4583 1.29408L10.0678 2.68456ZM10.0678 2.68456H10.0678L11.4583 1.29408C10.6904 0.526135 9.4453 0.526135 8.67736 1.29408L10.0678 2.68456ZM10.0678 2.68456V2.68456L8.67736 1.29408C7.90941 2.06202 7.90941 3.30711 8.67736 4.07505L10.0678 2.68456ZM13.3468 5.96348L10.0678 2.68456L8.67736 4.07505L11.9563 7.35397L13.3468 5.96348ZM2.32307 7.64195L12.6515 7.64195V5.6755L2.32307 5.6755V7.64195Z" fill="#830300"/>
</svg>
