<svg width="552" height="267" viewBox="0 0 552 267" fill="none" xmlns="http://www.w3.org/2000/svg">
<g clip-path="url(#clip0_1039_2607)">
<rect width="552" height="267" rx="10" fill="#FFE7C2"/>
<rect y="8" width="552" height="260" rx="10" fill="url(#paint0_linear_1039_2607)"/>
<mask id="path-3-inside-1_1039_2607" fill="white">
<path d="M128.142 -19.461C130.306 -19.6772 130.546 -16.2894 128.263 -16.1453C127.638 -16.1453 126.316 -16.6739 125.859 -16.3615C124.874 -15.7368 124.489 -14.6316 123.239 -14.3673C121.989 -14.103 121.677 -13.4062 120.836 -12.2529C119.995 -11.0996 119.85 -11.1237 120.836 -9.85023C121.332 -8.90031 121.595 -7.84632 121.605 -6.7748C121.605 -5.45332 119.778 -5.28513 120.499 -3.62728C121.052 -2.35386 120.716 -2.88244 119.61 -2.30579C118.504 -1.72915 118.504 -0.239487 117.903 0.697563C116.75 2.52361 114.058 3.4126 113.505 5.64709C113.289 6.53609 114.202 8.04978 113.337 8.81864C112.493 9.50478 111.532 10.0338 110.501 10.3804C109.539 10.6927 108.265 10.6207 107.52 11.4135C106.367 12.6149 106.559 14.6091 106.03 16.2189C105.56 17.3381 104.893 18.3635 104.059 19.2463C103.122 20.4476 102.617 21.9133 101.656 23.0666C101.175 23.6192 100.166 25.253 99.5167 25.4693C98.4351 25.9738 96.8488 24.5803 95.9595 25.9498C95.4078 26.9804 94.7118 27.927 93.8925 28.761C92.883 29.698 93.0512 31.1636 92.3062 32.1968C91.5611 33.2299 90.3593 33.4222 89.446 34.143C88.5326 34.8638 88.8211 36.0411 88.3163 37.0502C87.5712 38.4918 83.7016 37.4106 82.3316 37.6749C80.9824 37.7092 79.6459 37.9441 78.3658 38.3717C77.7649 38.7321 76.1786 40.1257 75.746 39.3328C75.2612 38.3913 75.1496 37.3015 75.4335 36.2814C75.5778 35.3683 75.9623 34.5514 74.7365 34.6235C73.2031 34.6229 71.6918 34.989 70.3288 35.6912C68.9657 36.3934 67.7905 37.4113 66.9011 38.66C65.7234 40.2218 65.3629 41.5432 63.5602 42.6004C62.0089 43.2715 60.6166 44.2621 59.4743 45.5077C58.0802 47.3818 58.633 53.3404 61.5172 53.7249C63.0555 53.9411 63.9208 55.1184 65.6994 55.0223C67.478 54.9262 66.4925 56.8003 65.8916 57.8815C65.405 58.4821 65.0667 59.1887 64.9038 59.9441C64.741 60.6996 64.7583 61.4828 64.9543 62.2304C65.5083 63.9103 66.4183 65.451 67.6222 66.7474C68.0264 67.0849 68.5117 67.3112 69.0301 67.4039C69.5486 67.4966 70.0823 67.4525 70.5785 67.276C72.982 66.9397 71.1072 68.5254 71.5158 70.0151C72.4772 73.523 76.7314 79.0492 74.5202 82.7013C74.0636 83.4461 73.6309 83.1338 73.4386 84.215C73.2463 85.2962 72.6695 84.215 72.1167 84.3591C72.1167 84.3591 72.1167 81.2597 70.8909 81.3317C69.2565 81.3317 67.9346 82.5571 66.3483 82.7493C65.7474 82.7493 64.762 82.3889 64.3534 82.9656C63.9964 83.5827 63.8688 84.3059 63.9929 85.0079C62.9287 84.9493 61.8734 84.7802 60.8443 84.5033C59.7387 84.0708 59.3541 82.6772 58.2245 82.2448C57.0948 81.8123 56.3738 82.8935 55.3643 83.2058C54.3548 83.5182 52.1436 82.485 50.9659 82.1967C49.7881 81.9084 48.995 81.3318 48.0576 81.6922C47.6267 81.9783 47.2941 82.3899 47.105 82.8712C46.9158 83.3525 46.8792 83.8803 47.0001 84.3831C47.2645 85.2001 47.0001 86.5936 45.7983 86.1852C45.2696 85.993 44.7889 86.1852 44.2601 86.1852C43.7313 86.1852 43.2026 85.3683 42.5296 85.2001C39.9819 84.6475 40.4626 88.6359 40.1261 89.7171C39.7896 90.7983 38.2273 91.1107 39.4771 92.1198C39.7896 92.3841 40.2943 93.0328 40.7029 93.1289C41.1115 93.2251 41.448 92.7205 41.8085 93.1289C42.8661 94.4264 44.5004 95.3154 44.909 96.9733C45.7381 98.9432 47.2599 100.541 49.1873 101.466C51.1527 102.671 53.2292 103.685 55.3883 104.494C56.5383 104.697 57.7105 104.746 58.8734 104.638C60.5078 104.638 59.0657 102.523 60.8923 103.196C61.4408 103.431 62.0405 103.521 62.6339 103.458C63.2273 103.395 63.7945 103.181 64.2813 102.836C64.8822 102.283 65.5311 101.803 66.4204 102.427C66.7809 102.668 64.6658 104.446 64.5216 104.566C63.3679 105.551 62.1181 104.926 60.9885 105.647C59.9326 106.015 58.8976 106.44 57.888 106.92C56.7824 107.761 55.9411 106.464 54.9076 107.089C54.4509 107.353 53.0329 108.314 52.6483 107.593C52.2638 106.872 52.0955 105.791 50.7496 105.767C50.2995 105.769 49.8551 105.867 49.4467 106.057C49.0384 106.246 48.6757 106.521 48.3836 106.863C48.0915 107.205 47.8767 107.607 47.7541 108.039C47.6315 108.472 47.6038 108.927 47.6731 109.371C47.9375 111.894 50.6053 114.008 52.1917 115.714C53.778 117.42 55.7248 119.318 57.3352 121.337C58.7974 123.615 60.403 125.797 62.1422 127.872C63.1036 128.809 64.5457 129.025 65.0504 130.275C65.5551 131.524 67.1414 131.5 68.3913 132.028C69.6411 132.557 70.266 133.927 71.612 133.038C71.9965 132.773 72.5734 132.101 73.1262 132.173C73.8247 132.376 74.5668 132.376 75.2653 132.173C76.2748 131.812 78.0293 131.812 78.8465 131.115C79.7276 130.251 80.8847 129.724 82.1153 129.626C82.5954 129.629 83.0684 129.509 83.4892 129.278C83.9099 129.047 84.2644 128.711 84.5188 128.304C85.2158 127.367 87.1146 127.968 87.8356 126.67C88.1481 126.118 88.1962 125.469 88.5327 124.917C88.8691 124.364 89.8065 123.739 90.3112 123.018C91.1525 121.817 90.3112 120.616 89.7344 119.679C89.5181 119.27 90.0228 119.102 90.2632 118.934C90.8881 118.453 90.4554 117.732 90.2632 117.156C89.9301 116.505 89.859 115.751 90.0647 115.05C90.2703 114.348 90.737 113.752 91.3688 113.384C91.0323 113.552 91.1525 115.45 91.1765 115.786C91.1765 117.54 91.9456 116.627 93.0512 116.867C93.4118 116.867 91.3928 118.477 91.3928 118.838C91.3928 120.64 92.6186 120.64 93.7963 120.832C93.2676 120.832 92.9791 121.937 92.9791 122.322C92.9791 123.139 92.9791 123.018 92.4023 123.427C92.0443 123.701 91.7787 124.078 91.6412 124.508C91.5037 124.937 91.5009 125.398 91.6332 125.83C91.8014 127.079 92.6186 127.079 93.1233 127.992C93.6281 128.905 92.5946 129.001 93.3397 129.818C94.0848 130.635 93.8684 131.644 94.3732 132.845C94.6933 133.428 94.8666 134.079 94.8779 134.743C94.8779 135.945 93.0753 136.449 92.883 137.723C92.93 139.393 92.5495 141.047 91.7774 142.528C90.2872 144.57 93.1954 145.556 92.4504 147.334C91.9456 148.535 92.6907 148.703 92.9551 149.736C93.2195 150.769 92.7147 151.73 92.7628 152.644C92.8109 153.557 93.4118 154.854 93.4839 155.911C93.4839 157.377 92.5705 157.521 93.6762 158.842C94.253 159.539 93.3637 160.164 93.2195 160.837C93.0753 161.509 94.1088 162.471 94.6616 162.783C95.2144 163.095 94.4453 164.297 94.9019 165.186C95.3586 166.075 96.1758 165.93 96.296 166.915C96.5123 168.501 97.5218 169.679 97.6179 171.457C97.6179 171.793 97.0411 173.403 97.2574 173.595C98.4351 174.508 97.8823 174.508 98.1947 175.998C98.3879 176.138 98.5652 176.299 98.7235 176.478C98.7235 176.983 98.4351 177.8 98.4591 178.352C98.4591 179.578 98.7716 180.755 98.8677 181.98C98.8786 184.476 99.4451 186.939 100.526 189.188C101.007 190.149 101.031 191.255 101.536 192.216C101.728 192.648 102.425 194.618 102.809 194.787C103.194 194.955 103.531 196.18 103.699 196.781C103.867 197.382 103.699 197.958 104.276 198.174C104.852 198.391 105.333 198.174 105.598 198.439C105.357 198.174 103.194 199.304 105.189 200.505C106.511 201.298 106.246 203.22 107.184 204.349C107.641 204.902 108.314 204.518 108.41 205.31C108.41 205.599 108.265 206.824 108.578 206.968C108.89 207.112 110.356 206.968 110.381 207.809C110.405 208.65 109.924 208.89 110.381 209.587C111.415 210.657 112.124 211.998 112.424 213.456C112.279 213.725 112.158 214.006 112.063 214.296C112.156 214.895 112.405 215.458 112.784 215.93C113.244 216.843 113.63 217.791 113.938 218.765C114.346 219.678 114.851 220.183 114.803 221.168C114.776 222.308 114.832 223.448 114.971 224.58C115.115 225.805 114.971 227.199 115.308 228.424C115.452 229.073 116.293 229.265 116.509 229.866C116.726 230.467 116.173 231.668 117.11 232.269C117.519 232.509 117.783 233.566 117.903 233.95C118.357 235.588 118.919 237.193 119.586 238.756C119.859 239.453 120.268 240.09 120.788 240.63C121.365 241.183 122.422 240.966 122.807 241.567C123.7 242.848 124.697 244.053 125.787 245.171C126.292 245.724 126.196 246.805 126.556 247.574C126.926 248.356 127.377 249.096 127.902 249.784C128.575 250.577 128.142 251.586 128.815 252.331C129.38 253.077 129.676 253.991 129.657 254.926C129.657 255.719 130.378 256.031 130.474 256.776C130.57 257.521 130.282 258.602 130.69 259.179C131.099 259.755 131.339 260.957 131.988 261.269C132.637 261.581 132.18 262.951 132.613 263.119C133.046 263.287 133.022 262.711 133.262 262.711C133.502 262.711 133.791 263.479 133.959 263.672C134.127 263.864 136.05 266.074 135.305 266.074C134.56 266.074 134.223 264.513 133.262 264.489C132.3 264.465 133.262 266.555 133.43 267.035C134.269 269.08 134.819 271.231 135.065 273.427C135.281 274.46 136.05 274.94 136.266 275.829C136.483 276.718 135.713 277.992 136.795 278.857C137.877 279.722 137.684 280.515 138.069 281.476C138.453 282.437 140.16 283.133 141.025 284.191C141.89 285.248 142.419 286.401 143.645 286.161C144.871 285.921 144.342 286.978 144.871 287.819C146.265 290.005 148.236 289.02 149.678 290.726C151.817 293.129 152.971 291.134 154.605 289.693C156.167 288.407 158.012 287.509 159.989 287.074C161.335 286.713 161.455 283.398 161.287 282.268C161.159 281.468 161.2 280.65 161.407 279.866C161.647 279.217 163.402 277.848 164.099 278.04C165.733 278.496 166.214 277.872 167.632 277.487C168.617 277.223 169.627 277.487 170.636 277.127C171.165 277.007 172.872 277.127 173.04 276.526C173.208 275.925 173.929 275.949 173.521 275.565C173.104 275.063 172.654 274.59 172.175 274.147C169.771 272.273 171.766 270.399 173.184 268.717C173.872 267.811 174.681 267.002 175.588 266.315C175.972 266.05 174.434 265.137 175.227 264.152C176.02 263.167 176.621 262.735 177.631 263.167C178.775 263.657 180.042 263.783 181.26 263.527C182.005 263.407 183.928 263.191 184.336 262.446C184.745 261.701 184.072 261.846 183.832 261.605C183.591 261.365 183.495 260.332 183.495 259.827C183.652 258.808 183.652 257.771 183.495 256.752C183.038 255.744 182.896 254.622 183.087 253.532C183.271 252.97 183.342 252.378 183.297 251.788C183.252 251.198 183.09 250.624 182.822 250.096C182.39 249.256 181.548 248.054 182.51 247.333C183.856 246.3 182.077 245.796 182.269 244.787C182.462 243.777 182.894 242.816 183.207 241.831C183.288 241.316 183.473 240.823 183.749 240.381C184.026 239.94 184.389 239.558 184.817 239.26C185.13 239.02 187.221 237.146 187.221 236.69C187.221 236.233 185.562 235.248 185.586 234.575C185.61 233.902 187.821 233.518 188.23 233.134C188.639 232.749 189.191 231.067 189.768 230.226C190.345 229.385 190.201 227.824 190.105 226.358C190.116 225.739 189.956 225.128 189.642 224.594C189.328 224.06 188.873 223.623 188.326 223.331C187.894 223.066 186.548 222.586 186.788 221.889C187.317 220.159 190.273 224.412 189.191 221.24C188.726 219.713 188.156 218.22 187.485 216.771C187.076 215.906 185.947 214.585 186.764 213.6C187.581 212.615 188.374 212.518 188.134 211.197C187.749 209.083 186.62 207.257 186.187 205.118C185.936 204.143 185.941 203.12 186.202 202.147C186.463 201.175 186.971 200.286 187.677 199.568C188.295 198.696 188.729 197.706 188.951 196.661C188.951 196.18 190.249 195.58 190.585 195.363C191.275 194.981 192.036 194.744 192.821 194.667C194.455 194.378 194.287 195.796 195.344 196.445C196.402 197.093 198.397 194.042 198.974 193.177C199.551 192.312 199.599 191.591 200.44 191.351C200.819 190.221 201.117 189.064 201.329 187.891C201.666 186.81 203.516 187.338 204.093 187.891C204.517 188.338 205.079 188.631 205.689 188.722C206.298 188.814 206.921 188.699 207.458 188.396C208.612 187.987 209.862 187.29 210.943 186.834C212.238 186.342 213.441 185.636 214.5 184.743C215.197 184.191 214.765 181.812 214.645 181.043C214.524 180.274 213.923 179.986 213.827 179.337C213.635 178.112 214.717 178.4 215.462 177.92C216.207 177.439 216.736 177.175 217.36 176.766C217.985 176.358 218.442 175.517 219.139 175.133C220.461 174.46 221.975 174.556 223.297 173.739C224.619 172.922 226.782 171.529 226.878 169.799C226.784 168.931 226.965 168.055 227.397 167.296C227.828 166.537 228.488 165.933 229.282 165.57C231.13 164.876 232.936 164.074 234.69 163.167C236.42 161.942 237.238 159.659 238.535 158.074C239.091 157.259 239.763 156.53 240.53 155.911C241.203 155.431 242.02 154.974 241.924 154.013C241.732 152.043 243.799 152.067 244.328 150.265C244.712 149.039 246.371 148.631 247.308 147.862C247.549 147.622 248.125 147.55 248.27 147.406C248.64 146.748 248.9 146.034 249.039 145.291C249.592 145.459 249.88 145.988 250.529 145.964C251.178 145.94 251.562 145.484 252.115 145.339C253.077 145.123 253.677 144.162 254.519 143.778C256.778 142.817 259.854 142.288 261.489 140.294C263.123 138.299 266.152 136.834 265.431 133.806C265.286 133.158 266.608 132.389 266.969 131.956C267.724 130.872 268.026 129.536 267.81 128.232C267.642 126.839 266.368 126.55 265.695 125.421C265.022 124.292 266.536 123.018 267.161 122.49C267.786 121.961 269.949 122.057 270.79 121.048C271.632 120.039 273.194 120.52 274.276 120.327C275.357 120.135 276.102 120.327 276.318 119.318C276.535 118.309 276.559 118.189 277.712 117.781C278.41 117.54 277.713 115.378 278.53 115.378C279.347 115.378 278.962 117.612 279.227 118.069C279.491 118.525 281.63 117.588 281.943 117.588C283.265 117.588 283.673 117.084 284.346 115.979C285.019 114.873 288.384 117.612 289.153 115.474C289.581 114.578 289.753 113.581 289.651 112.594C289.549 111.606 289.177 110.666 288.576 109.876C288.207 109.119 287.964 108.308 287.855 107.473C287.829 106.612 287.554 105.777 287.062 105.07C286.509 104.109 287.23 103.052 287.062 102.043C286.822 100.481 286.461 100.313 287.375 98.9194C288.288 97.5259 286.99 96.6369 286.005 96.3486C285.019 96.0602 284.707 96.4687 284.827 94.8829C284.922 94.2984 284.834 93.6988 284.576 93.1658C284.318 92.6327 283.902 92.192 283.385 91.9036C283.114 91.7917 282.878 91.6103 282.7 91.3776C282.522 91.1449 282.41 90.8692 282.373 90.5788C282.336 90.2883 282.377 89.9933 282.492 89.7238C282.606 89.4543 282.79 89.2199 283.024 89.0444C283.385 88.6479 283.642 88.1684 283.772 87.6484C283.902 87.1285 283.901 86.5845 283.769 86.065C283.769 85.0799 284.154 83.8065 283.769 82.8454C283.12 80.9713 279.683 82.8454 278.482 81.7402C277.28 80.635 275.213 77.5836 277.64 77.2712C279.034 77.079 279.371 75.9497 279.491 74.7003C279.611 73.4509 280.092 73.6191 281.005 73.0184C281.919 72.4178 286.509 73.2587 285.812 70.4716C285.5 68.9819 285.644 68.6456 284.13 68.2371C282.616 67.8287 283.697 66.363 282.592 65.8344C281.486 65.3058 280.332 66.7955 279.804 65.8344C279.275 64.8734 278.313 64.537 277.712 63.672C277.352 63.1674 276.703 63.1434 276.15 62.9272C275.069 62.5427 276.15 60.9329 276.15 60.5245C276.15 58.9867 277.64 58.8666 278.41 57.7374C279.179 56.6081 279.828 59.227 280.116 59.6355C280.645 60.4043 281.871 61.4375 282.784 60.7167C283.697 59.9959 282.784 58.8426 283.433 58.5302C284.442 58.0257 286.029 59.8277 286.63 60.4043C287.23 60.981 287.927 61.1252 288.745 61.6057C289.946 62.3265 291.004 61.6057 292.037 60.7888C293.431 59.6835 292.927 61.9421 292.59 62.5427C291.893 63.7441 292.47 64.4889 293.407 65.1376C293.169 66.3152 292.864 67.4783 292.494 68.6215C292.302 69.919 293.287 70.3274 294.369 70.6638C295.404 71.0279 296.476 71.2777 297.565 71.4087C298.685 71.4182 299.797 71.6047 300.858 71.9613C302.805 72.658 303.622 70.5917 305.353 71.0963C307.083 71.6009 307.564 71.0963 309.15 70.7599C310.737 70.4236 311.722 71.2645 313.092 71.0723C314.462 70.8801 315.496 71.6249 317.106 70.9041C317.696 70.3375 318.471 70.0035 319.289 69.9638C320.106 69.924 320.91 70.1812 321.552 70.6878C321.247 70.9937 320.965 71.3231 320.711 71.673C320.495 72.2977 321.12 72.61 321.12 73.1866C321.12 73.7633 320.807 73.8834 320.639 74.3399C320.471 74.7964 320.639 75.5893 320.423 76.166C320.206 76.7426 319.582 76.8627 319.101 76.9348C317.803 77.103 318.404 78.6648 318.308 79.5538C316.048 78.6407 314.775 81.2837 312.996 81.9565C310.857 82.8214 310.232 85.5605 310.04 87.6749C309.799 90.462 312.443 92.4802 312.083 94.8829C312.083 95.2914 311.794 98.4149 312.852 97.8863C313.909 97.3577 314.054 98.1506 314.847 96.9252C314.005 98.2226 316.914 99.3279 317.851 98.8233C318.564 98.496 319.221 98.0582 319.798 97.5259C320.134 96.9973 319.798 95.9401 319.798 95.3394C319.655 94.371 319.746 93.3825 320.062 92.4562C320.399 91.8315 320.952 91.375 321.024 90.6542C320.989 90.0654 321.08 89.476 321.288 88.9242C322.249 87.2664 321.985 88.9242 322.658 89.3808C324.124 90.2217 323.571 90.6782 323.619 92.24C323.619 93.3212 324.749 93.6816 325.23 94.6426C325.711 95.6037 324.965 97.0453 324.653 97.7181C324.052 99.0155 325.182 99.5201 325.903 100.385C327.056 101.755 326.504 102.235 326.528 103.725C326.528 104.325 327.129 104.59 327.129 105.214C327.129 105.839 326.864 106.416 326.912 107.041C326.96 107.665 327.826 108.939 327.922 110.044C328.018 111.149 327.561 112.062 328.619 113.071C329.676 114.08 330.085 112.735 330.493 112.014C330.493 112.014 332.609 113.095 332.897 113.143C334.243 113.384 334.123 111.437 334.387 110.741C334.652 110.044 335.469 109.203 335.853 108.338C336.502 106.872 335.397 106.248 335.517 105.07C335.529 102.905 335.213 100.75 334.579 98.6791C334.411 97.7181 334.147 96.4687 335.589 96.2765C337.031 96.0843 337.247 95.3154 337.656 93.8738C338.065 92.4322 336.791 91.9276 336.887 90.7263C336.983 89.5249 338.04 89.0684 337.752 87.5307C337.464 85.993 336.791 84.8157 337.44 83.5903C338.089 82.3649 339.459 84.1189 340.396 84.0708C340.877 84.0708 340.973 83.4942 341.381 83.4221C341.79 83.35 342.511 83.7104 343.04 83.7585C343.557 83.8558 344.091 83.8008 344.577 83.6004C345.064 83.3999 345.482 83.0625 345.78 82.6292C346.188 81.7883 345.539 81.0675 345.78 80.2265C345.905 79.0378 346.171 77.8682 346.573 76.7426C346.885 76.19 347.582 76.166 347.943 75.6614C348.303 75.1568 348.087 74.412 348.231 73.7873C348.52 72.5379 349.673 71.8411 349.89 70.5197C350.106 69.1982 350.034 68.117 350.202 66.8676C350.202 66.1708 348.376 65.7864 348.279 64.8734C348.183 63.9603 350.106 62.4707 350.683 61.9661C351.26 61.4615 351.716 59.8757 352.389 58.8906C353.062 57.9055 352.846 56.2717 353.231 55.0463C353.602 53.5271 353.45 51.9271 352.798 50.5053C352.486 49.5442 351.596 47.9344 352.798 47.1655C354 46.3967 354.649 46.9733 355.49 46.3006C356.29 45.5351 356.921 44.6101 357.341 43.5855C357.898 42.4316 358.722 41.4268 359.744 40.6543C360.706 39.8614 360.922 38.5399 361.835 37.723C362.748 36.9061 363.47 37.1463 364.239 36.4496C365.008 35.7528 365.513 36.4495 366.33 36.0411C367.82 35.2722 368.18 34.9358 369.142 36.2573C369.446 36.7287 369.862 37.1178 370.352 37.3902C370.843 37.6626 371.393 37.8099 371.954 37.8191C373.372 37.8191 373.42 37.8191 373.468 36.4736C373.468 34.6716 370.656 34.0709 370.151 32.0046C369.647 29.9383 370.608 30.4909 371.69 29.7941C372.771 29.0973 373.204 28.0161 374.093 27.3914C374.982 26.7667 375.343 26.0459 374.598 24.9887C374.381 24.6524 373.805 24.4601 373.684 24.0757C373.564 23.6913 374.478 22.8744 374.213 22.3698C373.949 21.8652 372.483 21.9854 372.098 21.8172C371.695 21.5758 371.234 21.4483 370.764 21.4483C370.294 21.4483 369.833 21.5758 369.43 21.8172C368.421 22.4659 367.363 20.8561 366.45 20.5678C365.537 20.2795 364.046 21.3607 363.157 21.625C361.739 22.0334 362.676 20.5918 363.157 20.1593C363.957 19.4469 364.667 18.6401 365.272 17.7566C365.657 17.1079 365.969 16.1228 364.864 15.9787C363.758 15.8345 364.022 14.489 363.926 13.576C363.83 12.6629 361.883 12.8551 361.835 13.7682C361.835 14.3208 362.124 14.4409 361.547 14.7773C360.97 15.1137 360.393 14.9935 360.465 14.3688C360.609 13.1194 360.874 13.0954 361.883 11.9662C362.893 10.8369 362.484 9.80373 361.258 9.56346C360.033 9.3232 360.561 9.56347 359.912 8.72253C358.687 7.18481 357.99 7.64132 356.812 8.72253C355.763 9.54743 354.767 10.4382 353.831 11.3895C353.279 11.9902 353.134 13.7922 352.245 13.9844C350.731 14.2007 350.346 13.7442 349.049 13.1435C348.135 12.687 347.366 13.2877 346.357 12.711C345.347 12.1344 344.242 12.0382 344.169 11.1733C344.049 9.58751 342.775 11.8701 342.535 12.1824C341.814 13.1195 340.756 13.4078 339.891 14.1045C339.026 14.8013 339.459 15.8825 338.93 16.5072C338.095 17.4386 337.369 18.4624 336.767 19.5587C336.43 20.2795 334.555 20.2074 333.93 20.3515C333.306 20.4957 333.258 21.2165 332.753 21.1444C331.839 21.1444 330.854 20.5197 329.965 21.1444C329.075 21.7691 329.027 22.9705 328.643 23.5471C328.258 24.1238 329.22 25.1569 328.643 25.6134C328.066 26.0699 326.792 25.9017 326.023 26.2862C325.35 26.6905 324.769 27.2306 324.316 27.872C323.884 28.5207 322.85 28.6889 322.754 29.4577C322.658 30.2266 323.74 31.0915 323.163 31.6442C322.576 32.2342 321.913 32.7432 321.192 33.1579C320.663 33.4462 320.11 32.6773 319.509 32.7494C317.772 32.8961 316.108 33.5197 314.702 34.5514C313.813 35.3443 312.299 31.9565 311.121 33.3741C310.689 33.9267 311.362 35.2242 311.121 36.0171C310.881 36.81 311.698 37.4827 311.674 38.2756C311.65 39.0685 315.52 39.1646 316.217 39.3328C316.914 39.501 318.019 40.1737 317.491 41.1108C316.962 42.0478 317.178 42.9368 317.106 44.1862C316.986 46.2285 314.462 44.1862 313.525 45.8921C313.188 46.4928 311.674 45.8921 311.121 46.3486C309.992 47.1175 309.198 46.8051 307.901 46.8532C305.497 46.8532 303.742 49.0156 301.291 47.2376C299.584 46.0122 298.671 46.2045 296.893 47.4539C296.508 47.7422 296.027 48.2948 295.498 48.1987C294.97 48.1026 294.032 47.7662 293.696 48.1987C293.359 48.6312 294.008 49.8806 292.662 49.352C292.275 49.143 291.958 48.8257 291.749 48.4389C291.268 48.0545 290.403 48.439 289.922 48.0545C289.442 47.6701 289.922 47.55 289.466 47.2616C288.36 46.4688 287.062 48.6071 286.798 48.511C286.077 48.1987 285.163 46.9493 284.394 46.4928C283.643 45.9543 283.04 45.2354 282.64 44.4024C282.231 43.7057 283.793 42.7446 283.385 41.7835C283.155 41.3664 282.778 41.0496 282.327 40.8945C281.895 40.6542 282.159 40.0536 281.75 39.7652C281.342 39.4769 282.832 37.4827 282.808 36.9301C282.889 35.9059 282.608 34.8858 282.015 34.0469C280.789 32.0767 279.347 31.9805 277.929 33.6624C277.04 34.6716 276.967 34.4313 275.718 34.5034C275.357 34.5034 273.819 34.5034 273.627 34.9359C273.392 35.2526 273.28 35.6435 273.311 36.0365C273.341 36.4295 273.513 36.7981 273.795 37.0743C274.876 38.3237 273.795 38.5639 273.314 39.6211C272.816 40.6154 272.537 41.7053 272.497 42.8167C272.377 43.8258 271.728 44.5706 271.632 45.5798C271.536 46.5889 272.785 48.1506 273.386 49.0637C274.013 50.3879 274.207 51.876 273.939 53.3164C273.939 53.3164 273.939 55.5029 273.266 54.8782C272.951 54.6542 272.579 54.5221 272.193 54.4966C271.807 54.4712 271.421 54.5533 271.079 54.734C269.41 55.262 267.659 55.4818 265.911 55.3827C264.445 55.3827 263.508 53.8931 262.114 53.7009C261.152 53.5567 260.624 54.4697 259.83 54.8061C259.268 54.9786 258.676 55.0313 258.093 54.961C257.509 54.8906 256.946 54.6987 256.442 54.3976C255.696 53.9411 255.384 52.6196 254.35 52.7638C253.774 52.7638 253.581 53.3885 252.98 53.3164C252.38 53.2443 251.923 52.6437 251.322 52.4755C250.313 52.1391 249.76 53.2924 248.919 52.2832C248.077 51.2741 248.221 50.5293 247.068 50.289C245.914 50.0488 245.674 51.2501 244.664 51.3222C243.655 51.3943 243.15 51.0579 242.261 50.2169C241.372 49.376 237.454 49.1598 237.334 48.1747C237.333 46.9588 237.009 45.7649 236.396 44.7148C235.555 43.4414 234.714 44.1862 233.344 44.042C232.503 44.042 232.503 42.9368 231.926 42.5284C231.106 42.1855 230.21 42.0693 229.33 42.192C228.157 42.5503 227.052 43.1025 226.061 43.8258C226.278 43.6816 224.259 43.0329 224.066 43.0329C223.752 43.01 223.437 43.0636 223.148 43.1891C222.859 43.3147 222.605 43.5084 222.408 43.7537C222.264 43.97 222.264 44.5706 222.047 44.7148C221.405 44.3197 220.709 44.0202 219.98 43.8258C218.96 43.8684 217.938 43.8121 216.928 43.6576C216.255 43.4173 216.928 42.1439 216.663 41.6634C216.231 40.5101 214.5 40.6062 213.539 40.8705C212.578 41.1348 212.025 42.0959 211.448 41.0867C210.722 40.2349 209.774 39.6024 208.708 39.2607C207.698 38.8763 207.074 38.4678 205.968 39.0445C204.285 39.9575 204.55 38.2756 203.348 37.7951C202.146 37.3145 201.161 37.5067 200.945 36.1612C200.945 35.7047 200.945 35.104 200.464 34.7677C199.983 34.4313 199.623 34.9359 199.767 35.4164C197.652 34.6716 197.556 32.0286 195.104 31.7883C192.652 31.5481 191.691 31.452 190.61 29.5298C189.528 27.6077 189.48 29.4097 188.494 29.7701C187.87 30.0104 184.961 27.92 184.505 27.3674C184.048 26.8148 183.88 25.9258 184.817 25.6615C185.754 25.3972 185.514 24.6524 185.61 23.7874C185.706 22.9224 186.524 22.6581 186.596 21.7451C186.668 20.8321 185.995 19.871 186.596 18.8378C187.197 17.8047 187.653 17.7807 187.773 16.6033C187.771 16.3478 187.821 16.0945 187.92 15.859C188.019 15.6235 188.166 15.4107 188.35 15.2338C188.946 14.7572 189.444 14.1697 189.816 13.5039C190.321 12.6389 191.523 12.8792 192.004 11.9181C192.484 10.957 194.768 8.91475 193.229 8.14589C192.196 7.6173 192.196 6.65623 191.547 5.7432C190.898 4.83018 190.249 5.40682 189.143 5.31071C188.038 5.21461 188.35 4.03728 187.269 4.5899C186.187 5.14252 186.331 3.70091 186.211 3.12427C185.995 1.85085 184.625 -0.287537 183.014 0.000785828C182.101 0.168968 181.789 -0.888214 180.971 -1.10445C180.297 -1.23187 179.614 -1.31217 178.928 -1.34474C177.631 -1.34474 175.996 -1.70512 175.828 -3.26688C175.66 -4.82862 175.155 -6.82285 173.424 -7.27936C171.982 -7.63976 171.021 -4.73252 171.021 -4.66044C170.726 -4.78797 170.475 -4.99957 170.3 -5.26879C170.125 -5.53802 170.033 -5.85292 170.036 -6.17413C170.036 -6.70272 169.338 -6.89494 169.29 -7.3995C169.29 -8.45668 171.574 -8.96125 170.204 -10.2347C168.834 -11.5081 170.036 -12.8776 169.843 -14.2712C169.843 -14.7998 168.858 -15.2563 168.593 -15.7368C168.065 -16.6258 168.401 -16.5057 168.714 -17.1064C169.026 -17.707 166.983 -17.6109 166.935 -17.8992C166.935 -18.8123 166.935 -19.7974 166.935 -20.7104C166.935 -21.6234 167.151 -23.1131 168.353 -22.4884C169.555 -21.8637 169.266 -21.215 169.819 -19.7493C170.156 -18.8843 171.333 -17.6109 172.367 -18.0194C173.953 -18.62 173.112 -18.7162 173.256 -19.9656C173.256 -20.7344 174.818 -20.374 175.059 -21.1669C175.299 -21.9598 177.054 -21.4792 177.631 -21.7916C179.241 -22.6566 179.842 -23.6417 178.88 -25.3956C177.919 -27.1496 175.179 -27.6542 176.621 -30.0328C178.063 -32.4115 174.121 -32.6277 172.535 -32.6277C170.949 -32.6277 170.853 -32.892 171.021 -34.5739C171.035 -35.1966 171.149 -35.8131 171.357 -36.3999C171.718 -37.1207 172.583 -37.337 172.896 -37.9857C172.896 -38.1779 172.367 -39.2111 172.319 -39.4273C172.078 -40.3404 171.405 -39.4273 170.829 -39.9799C170.252 -40.5326 170.3 -40.8689 170.829 -41.5177C171.862 -42.8151 172.944 -41.7819 174.314 -41.2534C174.794 -41.0611 176.717 -40.2202 176.717 -41.2534C176.717 -42.2865 177.751 -42.3106 178.063 -43.1995C178.359 -44.1916 178.583 -45.2032 178.736 -46.2269C178.856 -46.7796 180.515 -47.0198 180.899 -47.1159C182.293 -47.4763 180.755 -48.7497 181.644 -49.5186C182.534 -50.2875 183.351 -49.5186 184.048 -50.0712C185.105 -50.9602 184.745 -51.4167 184.697 -52.4739C184.649 -53.5311 185.37 -54.5402 185.514 -55.5734C185.658 -56.6065 186.788 -57.039 187.148 -57.9761C187.425 -59.0477 187.425 -60.1721 187.148 -61.2437C186.812 -62.2769 185.129 -62.8295 184.384 -63.4542C183.038 -64.6075 183.111 -65.2082 181.14 -65.3043C179.967 -65.3828 178.848 -65.8284 177.943 -66.5777C177.462 -67.0582 177.27 -68.2115 176.405 -67.755C175.356 -67.042 174.236 -66.4382 173.064 -65.953C172.439 -65.7848 169.987 -66.7219 169.867 -66.2653C169.29 -64.151 165.829 -65.7127 164.243 -64.7757C163.33 -64.2471 163.426 -62.9256 162.489 -62.373C161.287 -61.7945 159.994 -61.4286 158.667 -61.2918C158.454 -61.2862 158.246 -61.2312 158.058 -61.1311C157.87 -61.031 157.708 -60.8886 157.585 -60.7151C157.321 -60.4268 156.6 -60.7151 156.311 -60.7151C155.182 -60.7151 155.446 -61.8925 155.134 -62.7574C154.317 -65.1601 152.73 -65.1601 150.543 -64.9919C147.899 -64.6555 147.683 -66.4576 147.058 -68.6921C146.794 -69.7252 146.457 -69.9415 145.448 -70.3499C144.438 -70.7584 144.246 -72.4403 143.044 -72.6325C141.906 -72.7938 140.797 -73.1174 139.751 -73.5935C138.55 -74.2182 138.958 -75.2514 138.093 -75.9962C136.757 -76.9044 135.653 -78.1144 134.872 -79.5282C134.319 -80.5613 134.295 -80.2009 133.382 -80.6815C132.469 -81.162 133.382 -82.2672 132.565 -82.5315C131.195 -82.9881 131.531 -82.3634 130.378 -81.9309C129.681 -81.6906 128.791 -82.7718 128.527 -81.9309C128.263 -81.0899 126.845 -81.6666 126.556 -82.1471C126.268 -82.6276 125.571 -83.4446 124.874 -82.6997C124.177 -81.9549 124.008 -81.4263 123.287 -81.5705C122.11 -81.7627 122.278 -82.7958 121.004 -81.9068C120.403 -81.4744 118.913 -81.138 118.6 -80.5854C118.024 -79.6003 116.75 -80.7776 116.005 -80.8497C114.587 -80.9938 116.005 -79.0236 114.491 -78.5911C113.625 -78.3509 113.072 -78.9035 112.303 -79.1678C110.957 -79.6723 109.78 -78.4229 108.458 -78.8314C106.583 -79.4321 107.713 -75.8761 106.054 -75.9962C105.885 -76.0069 105.715 -75.9786 105.559 -75.9133C105.402 -75.8481 105.263 -75.7477 105.151 -75.6199C105.04 -75.4922 104.959 -75.3405 104.916 -75.1766C104.872 -75.0127 104.867 -74.841 104.901 -74.6748C105.309 -73.113 103.867 -73.978 103.026 -73.137C102.185 -72.2961 101.896 -72.4883 100.839 -72.0558C99.781 -71.6233 100.598 -69.6531 100.839 -69.1486C101.704 -67.8751 100.286 -65.5686 102.954 -65.8809C104.164 -66.0733 105.397 -66.0733 106.607 -65.8809C106.977 -65.7374 107.29 -65.4755 107.496 -65.1361C108.097 -64.2951 108.914 -63.8386 109.467 -63.0698C109.768 -62.5475 110.097 -62.0421 110.453 -61.5561C111.582 -60.2827 111.895 -61.8444 112.856 -62.1327C113.024 -62.1327 113.409 -58.9371 113.818 -58.6729C114.391 -58.2077 114.914 -57.6843 115.38 -57.1111C115.885 -56.6065 116.966 -56.9669 117.567 -56.5825C118.168 -56.1981 117.855 -55.3571 117.399 -55.1169C116.558 -54.7084 116.63 -54.372 116.149 -53.6993C115.308 -52.522 113.289 -53.3869 112.592 -51.8973C112.327 -51.2726 109.323 -49.4946 109.323 -49.4946C109.323 -48.8939 109.9 -48.5575 109.804 -47.7647C109.708 -46.9718 109.371 -46.2029 109.804 -45.5782C110.236 -44.9535 110.981 -45.0736 110.597 -43.8002C110.212 -42.5268 109.323 -43.1034 109.611 -41.9021C109.9 -40.7008 110.837 -40.8209 110.909 -39.7877C110.779 -38.5793 111.076 -37.3634 111.751 -36.3519C111.078 -37.0967 110.861 -33.781 110.861 -33.4687C110.861 -31.9309 109.491 -30.5374 110.861 -29.1438C112.832 -27.2457 115.356 -27.8704 117.399 -26.4288C118.072 -25.9242 118.697 -24.3144 119.634 -24.3865C119.995 -24.3865 122.182 -24.6748 122.47 -24.3865C122.759 -24.0982 121.989 -22.6806 122.182 -22.176C122.362 -21.8207 122.613 -21.5055 122.919 -21.2495C123.224 -20.9935 123.579 -20.8019 123.96 -20.6864C124.876 -20.4863 125.811 -20.3816 126.748 -20.374C127.469 -20.2299 127.277 -19.4129 128.142 -19.461Z"/>
</mask>
<path d="M128.142 -19.461C130.306 -19.6772 130.546 -16.2894 128.263 -16.1453C127.638 -16.1453 126.316 -16.6739 125.859 -16.3615C124.874 -15.7368 124.489 -14.6316 123.239 -14.3673C121.989 -14.103 121.677 -13.4062 120.836 -12.2529C119.995 -11.0996 119.85 -11.1237 120.836 -9.85023C121.332 -8.90031 121.595 -7.84632 121.605 -6.7748C121.605 -5.45332 119.778 -5.28513 120.499 -3.62728C121.052 -2.35386 120.716 -2.88244 119.61 -2.30579C118.504 -1.72915 118.504 -0.239487 117.903 0.697563C116.75 2.52361 114.058 3.4126 113.505 5.64709C113.289 6.53609 114.202 8.04978 113.337 8.81864C112.493 9.50478 111.532 10.0338 110.501 10.3804C109.539 10.6927 108.265 10.6207 107.52 11.4135C106.367 12.6149 106.559 14.6091 106.03 16.2189C105.56 17.3381 104.893 18.3635 104.059 19.2463C103.122 20.4476 102.617 21.9133 101.656 23.0666C101.175 23.6192 100.166 25.253 99.5167 25.4693C98.4351 25.9738 96.8488 24.5803 95.9595 25.9498C95.4078 26.9804 94.7118 27.927 93.8925 28.761C92.883 29.698 93.0512 31.1636 92.3062 32.1968C91.5611 33.2299 90.3593 33.4222 89.446 34.143C88.5326 34.8638 88.8211 36.0411 88.3163 37.0502C87.5712 38.4918 83.7016 37.4106 82.3316 37.6749C80.9824 37.7092 79.6459 37.9441 78.3658 38.3717C77.7649 38.7321 76.1786 40.1257 75.746 39.3328C75.2612 38.3913 75.1496 37.3015 75.4335 36.2814C75.5778 35.3683 75.9623 34.5514 74.7365 34.6235C73.2031 34.6229 71.6918 34.989 70.3288 35.6912C68.9657 36.3934 67.7905 37.4113 66.9011 38.66C65.7234 40.2218 65.3629 41.5432 63.5602 42.6004C62.0089 43.2715 60.6166 44.2621 59.4743 45.5077C58.0802 47.3818 58.633 53.3404 61.5172 53.7249C63.0555 53.9411 63.9208 55.1184 65.6994 55.0223C67.478 54.9262 66.4925 56.8003 65.8916 57.8815C65.405 58.4821 65.0667 59.1887 64.9038 59.9441C64.741 60.6996 64.7583 61.4828 64.9543 62.2304C65.5083 63.9103 66.4183 65.451 67.6222 66.7474C68.0264 67.0849 68.5117 67.3112 69.0301 67.4039C69.5486 67.4966 70.0823 67.4525 70.5785 67.276C72.982 66.9397 71.1072 68.5254 71.5158 70.0151C72.4772 73.523 76.7314 79.0492 74.5202 82.7013C74.0636 83.4461 73.6309 83.1338 73.4386 84.215C73.2463 85.2962 72.6695 84.215 72.1167 84.3591C72.1167 84.3591 72.1167 81.2597 70.8909 81.3317C69.2565 81.3317 67.9346 82.5571 66.3483 82.7493C65.7474 82.7493 64.762 82.3889 64.3534 82.9656C63.9964 83.5827 63.8688 84.3059 63.9929 85.0079C62.9287 84.9493 61.8734 84.7802 60.8443 84.5033C59.7387 84.0708 59.3541 82.6772 58.2245 82.2448C57.0948 81.8123 56.3738 82.8935 55.3643 83.2058C54.3548 83.5182 52.1436 82.485 50.9659 82.1967C49.7881 81.9084 48.995 81.3318 48.0576 81.6922C47.6267 81.9783 47.2941 82.3899 47.105 82.8712C46.9158 83.3525 46.8792 83.8803 47.0001 84.3831C47.2645 85.2001 47.0001 86.5936 45.7983 86.1852C45.2696 85.993 44.7889 86.1852 44.2601 86.1852C43.7313 86.1852 43.2026 85.3683 42.5296 85.2001C39.9819 84.6475 40.4626 88.6359 40.1261 89.7171C39.7896 90.7983 38.2273 91.1107 39.4771 92.1198C39.7896 92.3841 40.2943 93.0328 40.7029 93.1289C41.1115 93.2251 41.448 92.7205 41.8085 93.1289C42.8661 94.4264 44.5004 95.3154 44.909 96.9733C45.7381 98.9432 47.2599 100.541 49.1873 101.466C51.1527 102.671 53.2292 103.685 55.3883 104.494C56.5383 104.697 57.7105 104.746 58.8734 104.638C60.5078 104.638 59.0657 102.523 60.8923 103.196C61.4408 103.431 62.0405 103.521 62.6339 103.458C63.2273 103.395 63.7945 103.181 64.2813 102.836C64.8822 102.283 65.5311 101.803 66.4204 102.427C66.7809 102.668 64.6658 104.446 64.5216 104.566C63.3679 105.551 62.1181 104.926 60.9885 105.647C59.9326 106.015 58.8976 106.44 57.888 106.92C56.7824 107.761 55.9411 106.464 54.9076 107.089C54.4509 107.353 53.0329 108.314 52.6483 107.593C52.2638 106.872 52.0955 105.791 50.7496 105.767C50.2995 105.769 49.8551 105.867 49.4467 106.057C49.0384 106.246 48.6757 106.521 48.3836 106.863C48.0915 107.205 47.8767 107.607 47.7541 108.039C47.6315 108.472 47.6038 108.927 47.6731 109.371C47.9375 111.894 50.6053 114.008 52.1917 115.714C53.778 117.42 55.7248 119.318 57.3352 121.337C58.7974 123.615 60.403 125.797 62.1422 127.872C63.1036 128.809 64.5457 129.025 65.0504 130.275C65.5551 131.524 67.1414 131.5 68.3913 132.028C69.6411 132.557 70.266 133.927 71.612 133.038C71.9965 132.773 72.5734 132.101 73.1262 132.173C73.8247 132.376 74.5668 132.376 75.2653 132.173C76.2748 131.812 78.0293 131.812 78.8465 131.115C79.7276 130.251 80.8847 129.724 82.1153 129.626C82.5954 129.629 83.0684 129.509 83.4892 129.278C83.9099 129.047 84.2644 128.711 84.5188 128.304C85.2158 127.367 87.1146 127.968 87.8356 126.67C88.1481 126.118 88.1962 125.469 88.5327 124.917C88.8691 124.364 89.8065 123.739 90.3112 123.018C91.1525 121.817 90.3112 120.616 89.7344 119.679C89.5181 119.27 90.0228 119.102 90.2632 118.934C90.8881 118.453 90.4554 117.732 90.2632 117.156C89.9301 116.505 89.859 115.751 90.0647 115.05C90.2703 114.348 90.737 113.752 91.3688 113.384C91.0323 113.552 91.1525 115.45 91.1765 115.786C91.1765 117.54 91.9456 116.627 93.0512 116.867C93.4118 116.867 91.3928 118.477 91.3928 118.838C91.3928 120.64 92.6186 120.64 93.7963 120.832C93.2676 120.832 92.9791 121.937 92.9791 122.322C92.9791 123.139 92.9791 123.018 92.4023 123.427C92.0443 123.701 91.7787 124.078 91.6412 124.508C91.5037 124.937 91.5009 125.398 91.6332 125.83C91.8014 127.079 92.6186 127.079 93.1233 127.992C93.6281 128.905 92.5946 129.001 93.3397 129.818C94.0848 130.635 93.8684 131.644 94.3732 132.845C94.6933 133.428 94.8666 134.079 94.8779 134.743C94.8779 135.945 93.0753 136.449 92.883 137.723C92.93 139.393 92.5495 141.047 91.7774 142.528C90.2872 144.57 93.1954 145.556 92.4504 147.334C91.9456 148.535 92.6907 148.703 92.9551 149.736C93.2195 150.769 92.7147 151.73 92.7628 152.644C92.8109 153.557 93.4118 154.854 93.4839 155.911C93.4839 157.377 92.5705 157.521 93.6762 158.842C94.253 159.539 93.3637 160.164 93.2195 160.837C93.0753 161.509 94.1088 162.471 94.6616 162.783C95.2144 163.095 94.4453 164.297 94.9019 165.186C95.3586 166.075 96.1758 165.93 96.296 166.915C96.5123 168.501 97.5218 169.679 97.6179 171.457C97.6179 171.793 97.0411 173.403 97.2574 173.595C98.4351 174.508 97.8823 174.508 98.1947 175.998C98.3879 176.138 98.5652 176.299 98.7235 176.478C98.7235 176.983 98.4351 177.8 98.4591 178.352C98.4591 179.578 98.7716 180.755 98.8677 181.98C98.8786 184.476 99.4451 186.939 100.526 189.188C101.007 190.149 101.031 191.255 101.536 192.216C101.728 192.648 102.425 194.618 102.809 194.787C103.194 194.955 103.531 196.18 103.699 196.781C103.867 197.382 103.699 197.958 104.276 198.174C104.852 198.391 105.333 198.174 105.598 198.439C105.357 198.174 103.194 199.304 105.189 200.505C106.511 201.298 106.246 203.22 107.184 204.349C107.641 204.902 108.314 204.518 108.41 205.31C108.41 205.599 108.265 206.824 108.578 206.968C108.89 207.112 110.356 206.968 110.381 207.809C110.405 208.65 109.924 208.89 110.381 209.587C111.415 210.657 112.124 211.998 112.424 213.456C112.279 213.725 112.158 214.006 112.063 214.296C112.156 214.895 112.405 215.458 112.784 215.93C113.244 216.843 113.63 217.791 113.938 218.765C114.346 219.678 114.851 220.183 114.803 221.168C114.776 222.308 114.832 223.448 114.971 224.58C115.115 225.805 114.971 227.199 115.308 228.424C115.452 229.073 116.293 229.265 116.509 229.866C116.726 230.467 116.173 231.668 117.11 232.269C117.519 232.509 117.783 233.566 117.903 233.95C118.357 235.588 118.919 237.193 119.586 238.756C119.859 239.453 120.268 240.09 120.788 240.63C121.365 241.183 122.422 240.966 122.807 241.567C123.7 242.848 124.697 244.053 125.787 245.171C126.292 245.724 126.196 246.805 126.556 247.574C126.926 248.356 127.377 249.096 127.902 249.784C128.575 250.577 128.142 251.586 128.815 252.331C129.38 253.077 129.676 253.991 129.657 254.926C129.657 255.719 130.378 256.031 130.474 256.776C130.57 257.521 130.282 258.602 130.69 259.179C131.099 259.755 131.339 260.957 131.988 261.269C132.637 261.581 132.18 262.951 132.613 263.119C133.046 263.287 133.022 262.711 133.262 262.711C133.502 262.711 133.791 263.479 133.959 263.672C134.127 263.864 136.05 266.074 135.305 266.074C134.56 266.074 134.223 264.513 133.262 264.489C132.3 264.465 133.262 266.555 133.43 267.035C134.269 269.08 134.819 271.231 135.065 273.427C135.281 274.46 136.05 274.94 136.266 275.829C136.483 276.718 135.713 277.992 136.795 278.857C137.877 279.722 137.684 280.515 138.069 281.476C138.453 282.437 140.16 283.133 141.025 284.191C141.89 285.248 142.419 286.401 143.645 286.161C144.871 285.921 144.342 286.978 144.871 287.819C146.265 290.005 148.236 289.02 149.678 290.726C151.817 293.129 152.971 291.134 154.605 289.693C156.167 288.407 158.012 287.509 159.989 287.074C161.335 286.713 161.455 283.398 161.287 282.268C161.159 281.468 161.2 280.65 161.407 279.866C161.647 279.217 163.402 277.848 164.099 278.04C165.733 278.496 166.214 277.872 167.632 277.487C168.617 277.223 169.627 277.487 170.636 277.127C171.165 277.007 172.872 277.127 173.04 276.526C173.208 275.925 173.929 275.949 173.521 275.565C173.104 275.063 172.654 274.59 172.175 274.147C169.771 272.273 171.766 270.399 173.184 268.717C173.872 267.811 174.681 267.002 175.588 266.315C175.972 266.05 174.434 265.137 175.227 264.152C176.02 263.167 176.621 262.735 177.631 263.167C178.775 263.657 180.042 263.783 181.26 263.527C182.005 263.407 183.928 263.191 184.336 262.446C184.745 261.701 184.072 261.846 183.832 261.605C183.591 261.365 183.495 260.332 183.495 259.827C183.652 258.808 183.652 257.771 183.495 256.752C183.038 255.744 182.896 254.622 183.087 253.532C183.271 252.97 183.342 252.378 183.297 251.788C183.252 251.198 183.09 250.624 182.822 250.096C182.39 249.256 181.548 248.054 182.51 247.333C183.856 246.3 182.077 245.796 182.269 244.787C182.462 243.777 182.894 242.816 183.207 241.831C183.288 241.316 183.473 240.823 183.749 240.381C184.026 239.94 184.389 239.558 184.817 239.26C185.13 239.02 187.221 237.146 187.221 236.69C187.221 236.233 185.562 235.248 185.586 234.575C185.61 233.902 187.821 233.518 188.23 233.134C188.639 232.749 189.191 231.067 189.768 230.226C190.345 229.385 190.201 227.824 190.105 226.358C190.116 225.739 189.956 225.128 189.642 224.594C189.328 224.06 188.873 223.623 188.326 223.331C187.894 223.066 186.548 222.586 186.788 221.889C187.317 220.159 190.273 224.412 189.191 221.24C188.726 219.713 188.156 218.22 187.485 216.771C187.076 215.906 185.947 214.585 186.764 213.6C187.581 212.615 188.374 212.518 188.134 211.197C187.749 209.083 186.62 207.257 186.187 205.118C185.936 204.143 185.941 203.12 186.202 202.147C186.463 201.175 186.971 200.286 187.677 199.568C188.295 198.696 188.729 197.706 188.951 196.661C188.951 196.18 190.249 195.58 190.585 195.363C191.275 194.981 192.036 194.744 192.821 194.667C194.455 194.378 194.287 195.796 195.344 196.445C196.402 197.093 198.397 194.042 198.974 193.177C199.551 192.312 199.599 191.591 200.44 191.351C200.819 190.221 201.117 189.064 201.329 187.891C201.666 186.81 203.516 187.338 204.093 187.891C204.517 188.338 205.079 188.631 205.689 188.722C206.298 188.814 206.921 188.699 207.458 188.396C208.612 187.987 209.862 187.29 210.943 186.834C212.238 186.342 213.441 185.636 214.5 184.743C215.197 184.191 214.765 181.812 214.645 181.043C214.524 180.274 213.923 179.986 213.827 179.337C213.635 178.112 214.717 178.4 215.462 177.92C216.207 177.439 216.736 177.175 217.36 176.766C217.985 176.358 218.442 175.517 219.139 175.133C220.461 174.46 221.975 174.556 223.297 173.739C224.619 172.922 226.782 171.529 226.878 169.799C226.784 168.931 226.965 168.055 227.397 167.296C227.828 166.537 228.488 165.933 229.282 165.57C231.13 164.876 232.936 164.074 234.69 163.167C236.42 161.942 237.238 159.659 238.535 158.074C239.091 157.259 239.763 156.53 240.53 155.911C241.203 155.431 242.02 154.974 241.924 154.013C241.732 152.043 243.799 152.067 244.328 150.265C244.712 149.039 246.371 148.631 247.308 147.862C247.549 147.622 248.125 147.55 248.27 147.406C248.64 146.748 248.9 146.034 249.039 145.291C249.592 145.459 249.88 145.988 250.529 145.964C251.178 145.94 251.562 145.484 252.115 145.339C253.077 145.123 253.677 144.162 254.519 143.778C256.778 142.817 259.854 142.288 261.489 140.294C263.123 138.299 266.152 136.834 265.431 133.806C265.286 133.158 266.608 132.389 266.969 131.956C267.724 130.872 268.026 129.536 267.81 128.232C267.642 126.839 266.368 126.55 265.695 125.421C265.022 124.292 266.536 123.018 267.161 122.49C267.786 121.961 269.949 122.057 270.79 121.048C271.632 120.039 273.194 120.52 274.276 120.327C275.357 120.135 276.102 120.327 276.318 119.318C276.535 118.309 276.559 118.189 277.712 117.781C278.41 117.54 277.713 115.378 278.53 115.378C279.347 115.378 278.962 117.612 279.227 118.069C279.491 118.525 281.63 117.588 281.943 117.588C283.265 117.588 283.673 117.084 284.346 115.979C285.019 114.873 288.384 117.612 289.153 115.474C289.581 114.578 289.753 113.581 289.651 112.594C289.549 111.606 289.177 110.666 288.576 109.876C288.207 109.119 287.964 108.308 287.855 107.473C287.829 106.612 287.554 105.777 287.062 105.07C286.509 104.109 287.23 103.052 287.062 102.043C286.822 100.481 286.461 100.313 287.375 98.9194C288.288 97.5259 286.99 96.6369 286.005 96.3486C285.019 96.0602 284.707 96.4687 284.827 94.8829C284.922 94.2984 284.834 93.6988 284.576 93.1658C284.318 92.6327 283.902 92.192 283.385 91.9036C283.114 91.7917 282.878 91.6103 282.7 91.3776C282.522 91.1449 282.41 90.8692 282.373 90.5788C282.336 90.2883 282.377 89.9933 282.492 89.7238C282.606 89.4543 282.79 89.2199 283.024 89.0444C283.385 88.6479 283.642 88.1684 283.772 87.6484C283.902 87.1285 283.901 86.5845 283.769 86.065C283.769 85.0799 284.154 83.8065 283.769 82.8454C283.12 80.9713 279.683 82.8454 278.482 81.7402C277.28 80.635 275.213 77.5836 277.64 77.2712C279.034 77.079 279.371 75.9497 279.491 74.7003C279.611 73.4509 280.092 73.6191 281.005 73.0184C281.919 72.4178 286.509 73.2587 285.812 70.4716C285.5 68.9819 285.644 68.6456 284.13 68.2371C282.616 67.8287 283.697 66.363 282.592 65.8344C281.486 65.3058 280.332 66.7955 279.804 65.8344C279.275 64.8734 278.313 64.537 277.712 63.672C277.352 63.1674 276.703 63.1434 276.15 62.9272C275.069 62.5427 276.15 60.9329 276.15 60.5245C276.15 58.9867 277.64 58.8666 278.41 57.7374C279.179 56.6081 279.828 59.227 280.116 59.6355C280.645 60.4043 281.871 61.4375 282.784 60.7167C283.697 59.9959 282.784 58.8426 283.433 58.5302C284.442 58.0257 286.029 59.8277 286.63 60.4043C287.23 60.981 287.927 61.1252 288.745 61.6057C289.946 62.3265 291.004 61.6057 292.037 60.7888C293.431 59.6835 292.927 61.9421 292.59 62.5427C291.893 63.7441 292.47 64.4889 293.407 65.1376C293.169 66.3152 292.864 67.4783 292.494 68.6215C292.302 69.919 293.287 70.3274 294.369 70.6638C295.404 71.0279 296.476 71.2777 297.565 71.4087C298.685 71.4182 299.797 71.6047 300.858 71.9613C302.805 72.658 303.622 70.5917 305.353 71.0963C307.083 71.6009 307.564 71.0963 309.15 70.7599C310.737 70.4236 311.722 71.2645 313.092 71.0723C314.462 70.8801 315.496 71.6249 317.106 70.9041C317.696 70.3375 318.471 70.0035 319.289 69.9638C320.106 69.924 320.91 70.1812 321.552 70.6878C321.247 70.9937 320.965 71.3231 320.711 71.673C320.495 72.2977 321.12 72.61 321.12 73.1866C321.12 73.7633 320.807 73.8834 320.639 74.3399C320.471 74.7964 320.639 75.5893 320.423 76.166C320.206 76.7426 319.582 76.8627 319.101 76.9348C317.803 77.103 318.404 78.6648 318.308 79.5538C316.048 78.6407 314.775 81.2837 312.996 81.9565C310.857 82.8214 310.232 85.5605 310.04 87.6749C309.799 90.462 312.443 92.4802 312.083 94.8829C312.083 95.2914 311.794 98.4149 312.852 97.8863C313.909 97.3577 314.054 98.1506 314.847 96.9252C314.005 98.2226 316.914 99.3279 317.851 98.8233C318.564 98.496 319.221 98.0582 319.798 97.5259C320.134 96.9973 319.798 95.9401 319.798 95.3394C319.655 94.371 319.746 93.3825 320.062 92.4562C320.399 91.8315 320.952 91.375 321.024 90.6542C320.989 90.0654 321.08 89.476 321.288 88.9242C322.249 87.2664 321.985 88.9242 322.658 89.3808C324.124 90.2217 323.571 90.6782 323.619 92.24C323.619 93.3212 324.749 93.6816 325.23 94.6426C325.711 95.6037 324.965 97.0453 324.653 97.7181C324.052 99.0155 325.182 99.5201 325.903 100.385C327.056 101.755 326.504 102.235 326.528 103.725C326.528 104.325 327.129 104.59 327.129 105.214C327.129 105.839 326.864 106.416 326.912 107.041C326.96 107.665 327.826 108.939 327.922 110.044C328.018 111.149 327.561 112.062 328.619 113.071C329.676 114.08 330.085 112.735 330.493 112.014C330.493 112.014 332.609 113.095 332.897 113.143C334.243 113.384 334.123 111.437 334.387 110.741C334.652 110.044 335.469 109.203 335.853 108.338C336.502 106.872 335.397 106.248 335.517 105.07C335.529 102.905 335.213 100.75 334.579 98.6791C334.411 97.7181 334.147 96.4687 335.589 96.2765C337.031 96.0843 337.247 95.3154 337.656 93.8738C338.065 92.4322 336.791 91.9276 336.887 90.7263C336.983 89.5249 338.04 89.0684 337.752 87.5307C337.464 85.993 336.791 84.8157 337.44 83.5903C338.089 82.3649 339.459 84.1189 340.396 84.0708C340.877 84.0708 340.973 83.4942 341.381 83.4221C341.79 83.35 342.511 83.7104 343.04 83.7585C343.557 83.8558 344.091 83.8008 344.577 83.6004C345.064 83.3999 345.482 83.0625 345.78 82.6292C346.188 81.7883 345.539 81.0675 345.78 80.2265C345.905 79.0378 346.171 77.8682 346.573 76.7426C346.885 76.19 347.582 76.166 347.943 75.6614C348.303 75.1568 348.087 74.412 348.231 73.7873C348.52 72.5379 349.673 71.8411 349.89 70.5197C350.106 69.1982 350.034 68.117 350.202 66.8676C350.202 66.1708 348.376 65.7864 348.279 64.8734C348.183 63.9603 350.106 62.4707 350.683 61.9661C351.26 61.4615 351.716 59.8757 352.389 58.8906C353.062 57.9055 352.846 56.2717 353.231 55.0463C353.602 53.5271 353.45 51.9271 352.798 50.5053C352.486 49.5442 351.596 47.9344 352.798 47.1655C354 46.3967 354.649 46.9733 355.49 46.3006C356.29 45.5351 356.921 44.6101 357.341 43.5855C357.898 42.4316 358.722 41.4268 359.744 40.6543C360.706 39.8614 360.922 38.5399 361.835 37.723C362.748 36.9061 363.47 37.1463 364.239 36.4496C365.008 35.7528 365.513 36.4495 366.33 36.0411C367.82 35.2722 368.18 34.9358 369.142 36.2573C369.446 36.7287 369.862 37.1178 370.352 37.3902C370.843 37.6626 371.393 37.8099 371.954 37.8191C373.372 37.8191 373.42 37.8191 373.468 36.4736C373.468 34.6716 370.656 34.0709 370.151 32.0046C369.647 29.9383 370.608 30.4909 371.69 29.7941C372.771 29.0973 373.204 28.0161 374.093 27.3914C374.982 26.7667 375.343 26.0459 374.598 24.9887C374.381 24.6524 373.805 24.4601 373.684 24.0757C373.564 23.6913 374.478 22.8744 374.213 22.3698C373.949 21.8652 372.483 21.9854 372.098 21.8172C371.695 21.5758 371.234 21.4483 370.764 21.4483C370.294 21.4483 369.833 21.5758 369.43 21.8172C368.421 22.4659 367.363 20.8561 366.45 20.5678C365.537 20.2795 364.046 21.3607 363.157 21.625C361.739 22.0334 362.676 20.5918 363.157 20.1593C363.957 19.4469 364.667 18.6401 365.272 17.7566C365.657 17.1079 365.969 16.1228 364.864 15.9787C363.758 15.8345 364.022 14.489 363.926 13.576C363.83 12.6629 361.883 12.8551 361.835 13.7682C361.835 14.3208 362.124 14.4409 361.547 14.7773C360.97 15.1137 360.393 14.9935 360.465 14.3688C360.609 13.1194 360.874 13.0954 361.883 11.9662C362.893 10.8369 362.484 9.80373 361.258 9.56346C360.033 9.3232 360.561 9.56347 359.912 8.72253C358.687 7.18481 357.99 7.64132 356.812 8.72253C355.763 9.54743 354.767 10.4382 353.831 11.3895C353.279 11.9902 353.134 13.7922 352.245 13.9844C350.731 14.2007 350.346 13.7442 349.049 13.1435C348.135 12.687 347.366 13.2877 346.357 12.711C345.347 12.1344 344.242 12.0382 344.169 11.1733C344.049 9.58751 342.775 11.8701 342.535 12.1824C341.814 13.1195 340.756 13.4078 339.891 14.1045C339.026 14.8013 339.459 15.8825 338.93 16.5072C338.095 17.4386 337.369 18.4624 336.767 19.5587C336.43 20.2795 334.555 20.2074 333.93 20.3515C333.306 20.4957 333.258 21.2165 332.753 21.1444C331.839 21.1444 330.854 20.5197 329.965 21.1444C329.075 21.7691 329.027 22.9705 328.643 23.5471C328.258 24.1238 329.22 25.1569 328.643 25.6134C328.066 26.0699 326.792 25.9017 326.023 26.2862C325.35 26.6905 324.769 27.2306 324.316 27.872C323.884 28.5207 322.85 28.6889 322.754 29.4577C322.658 30.2266 323.74 31.0915 323.163 31.6442C322.576 32.2342 321.913 32.7432 321.192 33.1579C320.663 33.4462 320.11 32.6773 319.509 32.7494C317.772 32.8961 316.108 33.5197 314.702 34.5514C313.813 35.3443 312.299 31.9565 311.121 33.3741C310.689 33.9267 311.362 35.2242 311.121 36.0171C310.881 36.81 311.698 37.4827 311.674 38.2756C311.65 39.0685 315.52 39.1646 316.217 39.3328C316.914 39.501 318.019 40.1737 317.491 41.1108C316.962 42.0478 317.178 42.9368 317.106 44.1862C316.986 46.2285 314.462 44.1862 313.525 45.8921C313.188 46.4928 311.674 45.8921 311.121 46.3486C309.992 47.1175 309.198 46.8051 307.901 46.8532C305.497 46.8532 303.742 49.0156 301.291 47.2376C299.584 46.0122 298.671 46.2045 296.893 47.4539C296.508 47.7422 296.027 48.2948 295.498 48.1987C294.97 48.1026 294.032 47.7662 293.696 48.1987C293.359 48.6312 294.008 49.8806 292.662 49.352C292.275 49.143 291.958 48.8257 291.749 48.4389C291.268 48.0545 290.403 48.439 289.922 48.0545C289.442 47.6701 289.922 47.55 289.466 47.2616C288.36 46.4688 287.062 48.6071 286.798 48.511C286.077 48.1987 285.163 46.9493 284.394 46.4928C283.643 45.9543 283.04 45.2354 282.64 44.4024C282.231 43.7057 283.793 42.7446 283.385 41.7835C283.155 41.3664 282.778 41.0496 282.327 40.8945C281.895 40.6542 282.159 40.0536 281.75 39.7652C281.342 39.4769 282.832 37.4827 282.808 36.9301C282.889 35.9059 282.608 34.8858 282.015 34.0469C280.789 32.0767 279.347 31.9805 277.929 33.6624C277.04 34.6716 276.967 34.4313 275.718 34.5034C275.357 34.5034 273.819 34.5034 273.627 34.9359C273.392 35.2526 273.28 35.6435 273.311 36.0365C273.341 36.4295 273.513 36.7981 273.795 37.0743C274.876 38.3237 273.795 38.5639 273.314 39.6211C272.816 40.6154 272.537 41.7053 272.497 42.8167C272.377 43.8258 271.728 44.5706 271.632 45.5798C271.536 46.5889 272.785 48.1506 273.386 49.0637C274.013 50.3879 274.207 51.876 273.939 53.3164C273.939 53.3164 273.939 55.5029 273.266 54.8782C272.951 54.6542 272.579 54.5221 272.193 54.4966C271.807 54.4712 271.421 54.5533 271.079 54.734C269.41 55.262 267.659 55.4818 265.911 55.3827C264.445 55.3827 263.508 53.8931 262.114 53.7009C261.152 53.5567 260.624 54.4697 259.83 54.8061C259.268 54.9786 258.676 55.0313 258.093 54.961C257.509 54.8906 256.946 54.6987 256.442 54.3976C255.696 53.9411 255.384 52.6196 254.35 52.7638C253.774 52.7638 253.581 53.3885 252.98 53.3164C252.38 53.2443 251.923 52.6437 251.322 52.4755C250.313 52.1391 249.76 53.2924 248.919 52.2832C248.077 51.2741 248.221 50.5293 247.068 50.289C245.914 50.0488 245.674 51.2501 244.664 51.3222C243.655 51.3943 243.15 51.0579 242.261 50.2169C241.372 49.376 237.454 49.1598 237.334 48.1747C237.333 46.9588 237.009 45.7649 236.396 44.7148C235.555 43.4414 234.714 44.1862 233.344 44.042C232.503 44.042 232.503 42.9368 231.926 42.5284C231.106 42.1855 230.21 42.0693 229.33 42.192C228.157 42.5503 227.052 43.1025 226.061 43.8258C226.278 43.6816 224.259 43.0329 224.066 43.0329C223.752 43.01 223.437 43.0636 223.148 43.1891C222.859 43.3147 222.605 43.5084 222.408 43.7537C222.264 43.97 222.264 44.5706 222.047 44.7148C221.405 44.3197 220.709 44.0202 219.98 43.8258C218.96 43.8684 217.938 43.8121 216.928 43.6576C216.255 43.4173 216.928 42.1439 216.663 41.6634C216.231 40.5101 214.5 40.6062 213.539 40.8705C212.578 41.1348 212.025 42.0959 211.448 41.0867C210.722 40.2349 209.774 39.6024 208.708 39.2607C207.698 38.8763 207.074 38.4678 205.968 39.0445C204.285 39.9575 204.55 38.2756 203.348 37.7951C202.146 37.3145 201.161 37.5067 200.945 36.1612C200.945 35.7047 200.945 35.104 200.464 34.7677C199.983 34.4313 199.623 34.9359 199.767 35.4164C197.652 34.6716 197.556 32.0286 195.104 31.7883C192.652 31.5481 191.691 31.452 190.61 29.5298C189.528 27.6077 189.48 29.4097 188.494 29.7701C187.87 30.0104 184.961 27.92 184.505 27.3674C184.048 26.8148 183.88 25.9258 184.817 25.6615C185.754 25.3972 185.514 24.6524 185.61 23.7874C185.706 22.9224 186.524 22.6581 186.596 21.7451C186.668 20.8321 185.995 19.871 186.596 18.8378C187.197 17.8047 187.653 17.7807 187.773 16.6033C187.771 16.3478 187.821 16.0945 187.92 15.859C188.019 15.6235 188.166 15.4107 188.35 15.2338C188.946 14.7572 189.444 14.1697 189.816 13.5039C190.321 12.6389 191.523 12.8792 192.004 11.9181C192.484 10.957 194.768 8.91475 193.229 8.14589C192.196 7.6173 192.196 6.65623 191.547 5.7432C190.898 4.83018 190.249 5.40682 189.143 5.31071C188.038 5.21461 188.35 4.03728 187.269 4.5899C186.187 5.14252 186.331 3.70091 186.211 3.12427C185.995 1.85085 184.625 -0.287537 183.014 0.000785828C182.101 0.168968 181.789 -0.888214 180.971 -1.10445C180.297 -1.23187 179.614 -1.31217 178.928 -1.34474C177.631 -1.34474 175.996 -1.70512 175.828 -3.26688C175.66 -4.82862 175.155 -6.82285 173.424 -7.27936C171.982 -7.63976 171.021 -4.73252 171.021 -4.66044C170.726 -4.78797 170.475 -4.99957 170.3 -5.26879C170.125 -5.53802 170.033 -5.85292 170.036 -6.17413C170.036 -6.70272 169.338 -6.89494 169.29 -7.3995C169.29 -8.45668 171.574 -8.96125 170.204 -10.2347C168.834 -11.5081 170.036 -12.8776 169.843 -14.2712C169.843 -14.7998 168.858 -15.2563 168.593 -15.7368C168.065 -16.6258 168.401 -16.5057 168.714 -17.1064C169.026 -17.707 166.983 -17.6109 166.935 -17.8992C166.935 -18.8123 166.935 -19.7974 166.935 -20.7104C166.935 -21.6234 167.151 -23.1131 168.353 -22.4884C169.555 -21.8637 169.266 -21.215 169.819 -19.7493C170.156 -18.8843 171.333 -17.6109 172.367 -18.0194C173.953 -18.62 173.112 -18.7162 173.256 -19.9656C173.256 -20.7344 174.818 -20.374 175.059 -21.1669C175.299 -21.9598 177.054 -21.4792 177.631 -21.7916C179.241 -22.6566 179.842 -23.6417 178.88 -25.3956C177.919 -27.1496 175.179 -27.6542 176.621 -30.0328C178.063 -32.4115 174.121 -32.6277 172.535 -32.6277C170.949 -32.6277 170.853 -32.892 171.021 -34.5739C171.035 -35.1966 171.149 -35.8131 171.357 -36.3999C171.718 -37.1207 172.583 -37.337 172.896 -37.9857C172.896 -38.1779 172.367 -39.2111 172.319 -39.4273C172.078 -40.3404 171.405 -39.4273 170.829 -39.9799C170.252 -40.5326 170.3 -40.8689 170.829 -41.5177C171.862 -42.8151 172.944 -41.7819 174.314 -41.2534C174.794 -41.0611 176.717 -40.2202 176.717 -41.2534C176.717 -42.2865 177.751 -42.3106 178.063 -43.1995C178.359 -44.1916 178.583 -45.2032 178.736 -46.2269C178.856 -46.7796 180.515 -47.0198 180.899 -47.1159C182.293 -47.4763 180.755 -48.7497 181.644 -49.5186C182.534 -50.2875 183.351 -49.5186 184.048 -50.0712C185.105 -50.9602 184.745 -51.4167 184.697 -52.4739C184.649 -53.5311 185.37 -54.5402 185.514 -55.5734C185.658 -56.6065 186.788 -57.039 187.148 -57.9761C187.425 -59.0477 187.425 -60.1721 187.148 -61.2437C186.812 -62.2769 185.129 -62.8295 184.384 -63.4542C183.038 -64.6075 183.111 -65.2082 181.14 -65.3043C179.967 -65.3828 178.848 -65.8284 177.943 -66.5777C177.462 -67.0582 177.27 -68.2115 176.405 -67.755C175.356 -67.042 174.236 -66.4382 173.064 -65.953C172.439 -65.7848 169.987 -66.7219 169.867 -66.2653C169.29 -64.151 165.829 -65.7127 164.243 -64.7757C163.33 -64.2471 163.426 -62.9256 162.489 -62.373C161.287 -61.7945 159.994 -61.4286 158.667 -61.2918C158.454 -61.2862 158.246 -61.2312 158.058 -61.1311C157.87 -61.031 157.708 -60.8886 157.585 -60.7151C157.321 -60.4268 156.6 -60.7151 156.311 -60.7151C155.182 -60.7151 155.446 -61.8925 155.134 -62.7574C154.317 -65.1601 152.73 -65.1601 150.543 -64.9919C147.899 -64.6555 147.683 -66.4576 147.058 -68.6921C146.794 -69.7252 146.457 -69.9415 145.448 -70.3499C144.438 -70.7584 144.246 -72.4403 143.044 -72.6325C141.906 -72.7938 140.797 -73.1174 139.751 -73.5935C138.55 -74.2182 138.958 -75.2514 138.093 -75.9962C136.757 -76.9044 135.653 -78.1144 134.872 -79.5282C134.319 -80.5613 134.295 -80.2009 133.382 -80.6815C132.469 -81.162 133.382 -82.2672 132.565 -82.5315C131.195 -82.9881 131.531 -82.3634 130.378 -81.9309C129.681 -81.6906 128.791 -82.7718 128.527 -81.9309C128.263 -81.0899 126.845 -81.6666 126.556 -82.1471C126.268 -82.6276 125.571 -83.4446 124.874 -82.6997C124.177 -81.9549 124.008 -81.4263 123.287 -81.5705C122.11 -81.7627 122.278 -82.7958 121.004 -81.9068C120.403 -81.4744 118.913 -81.138 118.6 -80.5854C118.024 -79.6003 116.75 -80.7776 116.005 -80.8497C114.587 -80.9938 116.005 -79.0236 114.491 -78.5911C113.625 -78.3509 113.072 -78.9035 112.303 -79.1678C110.957 -79.6723 109.78 -78.4229 108.458 -78.8314C106.583 -79.4321 107.713 -75.8761 106.054 -75.9962C105.885 -76.0069 105.715 -75.9786 105.559 -75.9133C105.402 -75.8481 105.263 -75.7477 105.151 -75.6199C105.04 -75.4922 104.959 -75.3405 104.916 -75.1766C104.872 -75.0127 104.867 -74.841 104.901 -74.6748C105.309 -73.113 103.867 -73.978 103.026 -73.137C102.185 -72.2961 101.896 -72.4883 100.839 -72.0558C99.781 -71.6233 100.598 -69.6531 100.839 -69.1486C101.704 -67.8751 100.286 -65.5686 102.954 -65.8809C104.164 -66.0733 105.397 -66.0733 106.607 -65.8809C106.977 -65.7374 107.29 -65.4755 107.496 -65.1361C108.097 -64.2951 108.914 -63.8386 109.467 -63.0698C109.768 -62.5475 110.097 -62.0421 110.453 -61.5561C111.582 -60.2827 111.895 -61.8444 112.856 -62.1327C113.024 -62.1327 113.409 -58.9371 113.818 -58.6729C114.391 -58.2077 114.914 -57.6843 115.38 -57.1111C115.885 -56.6065 116.966 -56.9669 117.567 -56.5825C118.168 -56.1981 117.855 -55.3571 117.399 -55.1169C116.558 -54.7084 116.63 -54.372 116.149 -53.6993C115.308 -52.522 113.289 -53.3869 112.592 -51.8973C112.327 -51.2726 109.323 -49.4946 109.323 -49.4946C109.323 -48.8939 109.9 -48.5575 109.804 -47.7647C109.708 -46.9718 109.371 -46.2029 109.804 -45.5782C110.236 -44.9535 110.981 -45.0736 110.597 -43.8002C110.212 -42.5268 109.323 -43.1034 109.611 -41.9021C109.9 -40.7008 110.837 -40.8209 110.909 -39.7877C110.779 -38.5793 111.076 -37.3634 111.751 -36.3519C111.078 -37.0967 110.861 -33.781 110.861 -33.4687C110.861 -31.9309 109.491 -30.5374 110.861 -29.1438C112.832 -27.2457 115.356 -27.8704 117.399 -26.4288C118.072 -25.9242 118.697 -24.3144 119.634 -24.3865C119.995 -24.3865 122.182 -24.6748 122.47 -24.3865C122.759 -24.0982 121.989 -22.6806 122.182 -22.176C122.362 -21.8207 122.613 -21.5055 122.919 -21.2495C123.224 -20.9935 123.579 -20.8019 123.96 -20.6864C124.876 -20.4863 125.811 -20.3816 126.748 -20.374C127.469 -20.2299 127.277 -19.4129 128.142 -19.461Z" fill="url(#paint1_radial_1039_2607)" stroke="#671903" stroke-width="2" mask="url(#path-3-inside-1_1039_2607)"/>
<path d="M161.871 217.07L161.035 175.695L194.051 152.709L172.737 104.648L196.559 80.6587L230.828 85.17L250.053 70.4059L257.157 49.9004" stroke="black" stroke-linejoin="round" stroke-dasharray="2 2"/>
<path d="M159.363 220.411C159.822 220.411 160.216 220.247 160.544 219.92C160.871 219.593 161.034 219.199 161.034 218.739C161.034 218.28 160.871 217.886 160.544 217.558C160.216 217.231 159.822 217.068 159.363 217.068C158.903 217.068 158.509 217.231 158.182 217.558C157.855 217.886 157.691 218.28 157.691 218.739C157.691 219.199 157.855 219.593 158.182 219.92C158.509 220.247 158.903 220.411 159.363 220.411ZM159.363 228.456C159.251 228.456 159.14 228.435 159.028 228.394C158.917 228.352 158.819 228.296 158.736 228.226C156.702 226.429 155.183 224.761 154.18 223.222C153.177 221.683 152.676 220.244 152.676 218.907C152.676 216.817 153.348 215.152 154.693 213.912C156.037 212.673 157.593 212.053 159.363 212.053C161.132 212.053 162.688 212.673 164.032 213.912C165.377 215.152 166.049 216.817 166.049 218.907C166.049 220.244 165.548 221.683 164.545 223.222C163.542 224.761 162.023 226.429 159.989 228.226C159.906 228.296 159.808 228.352 159.697 228.394C159.585 228.435 159.474 228.456 159.363 228.456Z" fill="black"/>
<path d="M257.156 41.5401C257.615 41.5401 258.009 41.3763 258.337 41.0486C258.664 40.7215 258.827 40.3281 258.827 39.8684C258.827 39.4087 258.664 39.015 258.337 38.6874C258.009 38.3603 257.615 38.1967 257.156 38.1967C256.696 38.1967 256.302 38.3603 255.975 38.6874C255.648 39.015 255.484 39.4087 255.484 39.8684C255.484 40.3281 255.648 40.7215 255.975 41.0486C256.302 41.3763 256.696 41.5401 257.156 41.5401ZM257.156 49.5851C257.044 49.5851 256.933 49.5642 256.821 49.5224C256.71 49.4806 256.612 49.4249 256.529 49.3553C254.495 47.5582 252.976 45.8901 251.973 44.351C250.97 42.8114 250.469 41.3729 250.469 40.0356C250.469 37.946 251.141 36.2812 252.486 35.0414C253.83 33.8016 255.386 33.1816 257.156 33.1816C258.925 33.1816 260.481 33.8016 261.825 35.0414C263.17 36.2812 263.842 37.946 263.842 40.0356C263.842 41.3729 263.341 42.8114 262.338 44.351C261.335 45.8901 259.816 47.5582 257.782 49.3553C257.699 49.4249 257.601 49.4806 257.49 49.5224C257.378 49.5642 257.267 49.5851 257.156 49.5851Z" fill="black"/>
<path d="M230 78.0955C230.275 78.0955 230.51 77.9957 230.707 77.7959C230.902 77.5965 231 77.3567 231 77.0764C231 76.7962 230.902 76.5562 230.707 76.3564C230.51 76.157 230.275 76.0573 230 76.0573C229.725 76.0573 229.49 76.157 229.294 76.3564C229.098 76.5562 229 76.7962 229 77.0764C229 77.3567 229.098 77.5965 229.294 77.7959C229.49 77.9957 229.725 78.0955 230 78.0955ZM230 83C229.933 83 229.867 82.9873 229.8 82.9618C229.733 82.9363 229.675 82.9023 229.625 82.8599C228.408 81.7643 227.5 80.7474 226.9 79.8092C226.3 78.8706 226 77.9936 226 77.1783C226 75.9045 226.402 74.8896 227.207 74.1338C228.01 73.3779 228.942 73 230 73C231.058 73 231.99 73.3779 232.793 74.1338C233.598 74.8896 234 75.9045 234 77.1783C234 77.9936 233.7 78.8706 233.1 79.8092C232.5 80.7474 231.592 81.7643 230.375 82.8599C230.325 82.9023 230.267 82.9363 230.2 82.9618C230.133 82.9873 230.067 83 230 83Z" fill="black" fill-opacity="0.27"/>
<path d="M195 73.0955C195.275 73.0955 195.51 72.9957 195.707 72.7959C195.902 72.5965 196 72.3567 196 72.0764C196 71.7962 195.902 71.5562 195.707 71.3564C195.51 71.157 195.275 71.0573 195 71.0573C194.725 71.0573 194.49 71.157 194.294 71.3564C194.098 71.5562 194 71.7962 194 72.0764C194 72.3567 194.098 72.5965 194.294 72.7959C194.49 72.9957 194.725 73.0955 195 73.0955ZM195 78C194.933 78 194.867 77.9873 194.8 77.9618C194.733 77.9363 194.675 77.9023 194.625 77.8599C193.408 76.7643 192.5 75.7474 191.9 74.8092C191.3 73.8706 191 72.9936 191 72.1783C191 70.9045 191.402 69.8896 192.207 69.1338C193.01 68.3779 193.942 68 195 68C196.058 68 196.99 68.3779 197.793 69.1338C198.598 69.8896 199 70.9045 199 72.1783C199 72.9936 198.7 73.8706 198.1 74.8092C197.5 75.7474 196.592 76.7643 195.375 77.8599C195.325 77.9023 195.267 77.9363 195.2 77.9618C195.133 77.9873 195.067 78 195 78Z" fill="black" fill-opacity="0.27"/>
<path d="M172 97.0955C172.275 97.0955 172.51 96.9957 172.707 96.7959C172.902 96.5965 173 96.3567 173 96.0764C173 95.7962 172.902 95.5562 172.707 95.3564C172.51 95.157 172.275 95.0573 172 95.0573C171.725 95.0573 171.49 95.157 171.294 95.3564C171.098 95.5562 171 95.7962 171 96.0764C171 96.3567 171.098 96.5965 171.294 96.7959C171.49 96.9957 171.725 97.0955 172 97.0955ZM172 102C171.933 102 171.867 101.987 171.8 101.962C171.733 101.936 171.675 101.902 171.625 101.86C170.408 100.764 169.5 99.7474 168.9 98.8092C168.3 97.8706 168 96.9936 168 96.1783C168 94.9045 168.402 93.8896 169.207 93.1338C170.01 92.3779 170.942 92 172 92C173.058 92 173.99 92.3779 174.793 93.1338C175.598 93.8896 176 94.9045 176 96.1783C176 96.9936 175.7 97.8706 175.1 98.8092C174.5 99.7474 173.592 100.764 172.375 101.86C172.325 101.902 172.267 101.936 172.2 101.962C172.133 101.987 172.067 102 172 102Z" fill="black" fill-opacity="0.27"/>
<path d="M199 147.096C199.275 147.096 199.51 146.996 199.707 146.796C199.902 146.597 200 146.357 200 146.076C200 145.796 199.902 145.556 199.707 145.356C199.51 145.157 199.275 145.057 199 145.057C198.725 145.057 198.49 145.157 198.294 145.356C198.098 145.556 198 145.796 198 146.076C198 146.357 198.098 146.597 198.294 146.796C198.49 146.996 198.725 147.096 199 147.096ZM199 152C198.933 152 198.867 151.987 198.8 151.962C198.733 151.936 198.675 151.902 198.625 151.86C197.408 150.764 196.5 149.747 195.9 148.809C195.3 147.871 195 146.994 195 146.178C195 144.904 195.402 143.89 196.207 143.134C197.01 142.378 197.942 142 199 142C200.058 142 200.99 142.378 201.793 143.134C202.598 143.89 203 144.904 203 146.178C203 146.994 202.7 147.871 202.1 148.809C201.5 149.747 200.592 150.764 199.375 151.86C199.325 151.902 199.267 151.936 199.2 151.962C199.133 151.987 199.067 152 199 152Z" fill="black" fill-opacity="0.27"/>
<path d="M159 170.096C159.275 170.096 159.51 169.996 159.707 169.796C159.902 169.597 160 169.357 160 169.076C160 168.796 159.902 168.556 159.707 168.356C159.51 168.157 159.275 168.057 159 168.057C158.725 168.057 158.49 168.157 158.294 168.356C158.098 168.556 158 168.796 158 169.076C158 169.357 158.098 169.597 158.294 169.796C158.49 169.996 158.725 170.096 159 170.096ZM159 175C158.933 175 158.867 174.987 158.8 174.962C158.733 174.936 158.675 174.902 158.625 174.86C157.408 173.764 156.5 172.747 155.9 171.809C155.3 170.871 155 169.994 155 169.178C155 167.904 155.402 166.89 156.207 166.134C157.01 165.378 157.942 165 159 165C160.058 165 160.99 165.378 161.793 166.134C162.598 166.89 163 167.904 163 169.178C163 169.994 162.7 170.871 162.1 171.809C161.5 172.747 160.592 173.764 159.375 174.86C159.325 174.902 159.267 174.936 159.2 174.962C159.133 174.987 159.067 175 159 175Z" fill="black" fill-opacity="0.27"/>
<path d="M242.336 240.588V237.34C242.877 237.34 243.335 237.312 243.708 237.256C244.081 237.181 244.371 237.06 244.576 236.892C244.781 236.705 244.931 236.444 245.024 236.108C245.117 235.772 245.164 235.333 245.164 234.792V217.32H249.784V234.988C249.784 236.239 249.635 237.284 249.336 238.124C249.037 238.945 248.505 239.561 247.74 239.972C246.993 240.383 245.939 240.588 244.576 240.588H242.336ZM259.524 240.308C257.863 240.308 256.547 240.009 255.576 239.412C254.606 238.815 253.906 237.965 253.476 236.864C253.066 235.744 252.86 234.409 252.86 232.86V224.404C252.86 222.855 253.066 221.529 253.476 220.428C253.906 219.327 254.606 218.487 255.576 217.908C256.547 217.329 257.863 217.04 259.524 217.04C261.204 217.04 262.53 217.339 263.5 217.936C264.49 218.515 265.19 219.355 265.6 220.456C266.03 221.539 266.244 222.855 266.244 224.404V232.86C266.244 234.409 266.03 235.744 265.6 236.864C265.19 237.965 264.49 238.815 263.5 239.412C262.53 240.009 261.204 240.308 259.524 240.308ZM259.524 236.976C260.122 236.976 260.56 236.845 260.84 236.584C261.12 236.304 261.307 235.94 261.4 235.492C261.494 235.025 261.54 234.531 261.54 234.008V223.284C261.54 222.761 261.494 222.276 261.4 221.828C261.307 221.38 261.12 221.025 260.84 220.764C260.56 220.484 260.122 220.344 259.524 220.344C258.964 220.344 258.544 220.484 258.264 220.764C257.984 221.025 257.798 221.38 257.704 221.828C257.611 222.276 257.564 222.761 257.564 223.284V234.008C257.564 234.531 257.602 235.025 257.676 235.492C257.77 235.94 257.956 236.304 258.236 236.584C258.516 236.845 258.946 236.976 259.524 236.976ZM269.385 240V217.32H273.977V240H269.385ZM277.45 240V217.32H280.67L285.71 229.136V217.32H289.518V240H286.438L281.398 227.456V240H277.45ZM306.338 240.308C304.621 240.308 303.286 240.019 302.334 239.44C301.382 238.843 300.71 237.993 300.318 236.892C299.945 235.772 299.758 234.419 299.758 232.832V217.32H304.322V233.476C304.322 234.036 304.359 234.587 304.434 235.128C304.527 235.669 304.714 236.108 304.994 236.444C305.293 236.78 305.741 236.948 306.338 236.948C306.954 236.948 307.402 236.78 307.682 236.444C307.981 236.108 308.167 235.669 308.242 235.128C308.317 234.587 308.354 234.036 308.354 233.476V217.32H312.918V232.832C312.918 234.419 312.722 235.772 312.33 236.892C311.957 237.993 311.294 238.843 310.342 239.44C309.39 240.019 308.055 240.308 306.338 240.308ZM322.022 240.308C320.622 240.308 319.455 240.056 318.522 239.552C317.588 239.029 316.879 238.255 316.394 237.228C315.927 236.183 315.656 234.857 315.582 233.252L319.558 232.58C319.595 233.513 319.688 234.297 319.838 234.932C320.006 235.548 320.248 236.015 320.566 236.332C320.902 236.631 321.312 236.78 321.798 236.78C322.395 236.78 322.796 236.593 323.002 236.22C323.226 235.847 323.338 235.417 323.338 234.932C323.338 233.98 323.104 233.187 322.638 232.552C322.19 231.899 321.592 231.245 320.846 230.592L318.494 228.548C317.654 227.839 316.963 227.036 316.422 226.14C315.899 225.244 315.638 224.143 315.638 222.836C315.638 220.969 316.179 219.541 317.262 218.552C318.363 217.544 319.866 217.04 321.77 217.04C322.908 217.04 323.842 217.227 324.57 217.6C325.298 217.973 325.858 218.477 326.25 219.112C326.66 219.728 326.94 220.409 327.09 221.156C327.258 221.884 327.36 222.612 327.398 223.34L323.45 223.928C323.412 223.237 323.347 222.631 323.254 222.108C323.179 221.585 323.011 221.175 322.75 220.876C322.507 220.577 322.134 220.428 321.63 220.428C321.088 220.428 320.687 220.633 320.426 221.044C320.164 221.436 320.034 221.875 320.034 222.36C320.034 223.163 320.211 223.825 320.566 224.348C320.939 224.852 321.443 225.384 322.078 225.944L324.374 227.96C325.326 228.781 326.138 229.724 326.81 230.788C327.5 231.833 327.846 233.131 327.846 234.68C327.846 235.744 327.603 236.705 327.118 237.564C326.632 238.423 325.951 239.095 325.074 239.58C324.215 240.065 323.198 240.308 322.022 240.308ZM343.606 240.308C341.945 240.308 340.629 240.009 339.658 239.412C338.688 238.815 337.988 237.965 337.558 236.864C337.148 235.744 336.942 234.409 336.942 232.86V224.404C336.942 222.855 337.148 221.529 337.558 220.428C337.988 219.327 338.688 218.487 339.658 217.908C340.629 217.329 341.945 217.04 343.606 217.04C345.286 217.04 346.612 217.339 347.582 217.936C348.572 218.515 349.272 219.355 349.682 220.456C350.112 221.539 350.326 222.855 350.326 224.404V232.86C350.326 234.409 350.112 235.744 349.682 236.864C349.272 237.965 348.572 238.815 347.582 239.412C346.612 240.009 345.286 240.308 343.606 240.308ZM343.606 236.976C344.204 236.976 344.642 236.845 344.922 236.584C345.202 236.304 345.389 235.94 345.482 235.492C345.576 235.025 345.622 234.531 345.622 234.008V223.284C345.622 222.761 345.576 222.276 345.482 221.828C345.389 221.38 345.202 221.025 344.922 220.764C344.642 220.484 344.204 220.344 343.606 220.344C343.046 220.344 342.626 220.484 342.346 220.764C342.066 221.025 341.88 221.38 341.786 221.828C341.693 222.276 341.646 222.761 341.646 223.284V234.008C341.646 234.531 341.684 235.025 341.758 235.492C341.852 235.94 342.038 236.304 342.318 236.584C342.598 236.845 343.028 236.976 343.606 236.976ZM353.411 240V217.32H356.631L361.671 229.136V217.32H365.479V240H362.399L357.359 227.456V240H353.411ZM382.243 240.308C380.582 240.308 379.266 240.009 378.295 239.412C377.324 238.815 376.624 237.965 376.195 236.864C375.784 235.744 375.579 234.409 375.579 232.86V224.404C375.579 222.855 375.784 221.529 376.195 220.428C376.624 219.327 377.324 218.487 378.295 217.908C379.266 217.329 380.582 217.04 382.243 217.04C383.923 217.04 385.248 217.339 386.219 217.936C387.208 218.515 387.908 219.355 388.319 220.456C388.748 221.539 388.963 222.855 388.963 224.404V232.86C388.963 234.409 388.748 235.744 388.319 236.864C387.908 237.965 387.208 238.815 386.219 239.412C385.248 240.009 383.923 240.308 382.243 240.308ZM382.243 236.976C382.84 236.976 383.279 236.845 383.559 236.584C383.839 236.304 384.026 235.94 384.119 235.492C384.212 235.025 384.259 234.531 384.259 234.008V223.284C384.259 222.761 384.212 222.276 384.119 221.828C384.026 221.38 383.839 221.025 383.559 220.764C383.279 220.484 382.84 220.344 382.243 220.344C381.683 220.344 381.263 220.484 380.983 220.764C380.703 221.025 380.516 221.38 380.423 221.828C380.33 222.276 380.283 222.761 380.283 223.284V234.008C380.283 234.531 380.32 235.025 380.395 235.492C380.488 235.94 380.675 236.304 380.955 236.584C381.235 236.845 381.664 236.976 382.243 236.976ZM398.432 240.308C396.715 240.308 395.38 240.019 394.428 239.44C393.476 238.843 392.804 237.993 392.412 236.892C392.039 235.772 391.852 234.419 391.852 232.832V217.32H396.416V233.476C396.416 234.036 396.453 234.587 396.528 235.128C396.621 235.669 396.808 236.108 397.088 236.444C397.387 236.78 397.835 236.948 398.432 236.948C399.048 236.948 399.496 236.78 399.776 236.444C400.075 236.108 400.261 235.669 400.336 235.128C400.411 234.587 400.448 234.036 400.448 233.476V217.32H405.012V232.832C405.012 234.419 404.816 235.772 404.424 236.892C404.051 237.993 403.388 238.843 402.436 239.44C401.484 240.019 400.149 240.308 398.432 240.308ZM408.235 240V217.32H414.115C415.646 217.32 416.953 217.497 418.035 217.852C419.137 218.188 419.977 218.795 420.555 219.672C421.153 220.549 421.451 221.763 421.451 223.312C421.451 224.245 421.367 225.076 421.199 225.804C421.05 226.513 420.77 227.139 420.359 227.68C419.967 228.203 419.407 228.623 418.679 228.94L421.815 240H417.083L414.479 229.724H412.855V240H408.235ZM412.855 226.98H414.199C414.946 226.98 415.534 226.859 415.963 226.616C416.393 226.373 416.691 226.009 416.859 225.524C417.046 225.02 417.139 224.404 417.139 223.676C417.139 222.631 416.943 221.837 416.551 221.296C416.178 220.736 415.469 220.456 414.423 220.456H412.855V226.98ZM430.188 240.588V237.34C430.729 237.34 431.186 237.312 431.56 237.256C431.933 237.181 432.222 237.06 432.428 236.892C432.633 236.705 432.782 236.444 432.876 236.108C432.969 235.772 433.016 235.333 433.016 234.792V217.32H437.636V234.988C437.636 236.239 437.486 237.284 437.188 238.124C436.889 238.945 436.357 239.561 435.592 239.972C434.845 240.383 433.79 240.588 432.428 240.588H430.188ZM447.376 240.308C445.715 240.308 444.399 240.009 443.428 239.412C442.457 238.815 441.757 237.965 441.328 236.864C440.917 235.744 440.712 234.409 440.712 232.86V224.404C440.712 222.855 440.917 221.529 441.328 220.428C441.757 219.327 442.457 218.487 443.428 217.908C444.399 217.329 445.715 217.04 447.376 217.04C449.056 217.04 450.381 217.339 451.352 217.936C452.341 218.515 453.041 219.355 453.452 220.456C453.881 221.539 454.096 222.855 454.096 224.404V232.86C454.096 234.409 453.881 235.744 453.452 236.864C453.041 237.965 452.341 238.815 451.352 239.412C450.381 240.009 449.056 240.308 447.376 240.308ZM447.376 236.976C447.973 236.976 448.412 236.845 448.692 236.584C448.972 236.304 449.159 235.94 449.252 235.492C449.345 235.025 449.392 234.531 449.392 234.008V223.284C449.392 222.761 449.345 222.276 449.252 221.828C449.159 221.38 448.972 221.025 448.692 220.764C448.412 220.484 447.973 220.344 447.376 220.344C446.816 220.344 446.396 220.484 446.116 220.764C445.836 221.025 445.649 221.38 445.556 221.828C445.463 222.276 445.416 222.761 445.416 223.284V234.008C445.416 234.531 445.453 235.025 445.528 235.492C445.621 235.94 445.808 236.304 446.088 236.584C446.368 236.845 446.797 236.976 447.376 236.976ZM463.565 240.308C461.847 240.308 460.513 240.019 459.561 239.44C458.609 238.843 457.937 237.993 457.545 236.892C457.171 235.772 456.985 234.419 456.985 232.832V217.32H461.549V233.476C461.549 234.036 461.586 234.587 461.661 235.128C461.754 235.669 461.941 236.108 462.221 236.444C462.519 236.78 462.967 236.948 463.565 236.948C464.181 236.948 464.629 236.78 464.909 236.444C465.207 236.108 465.394 235.669 465.469 235.128C465.543 234.587 465.581 234.036 465.581 233.476V217.32H470.145V232.832C470.145 234.419 469.949 235.772 469.557 236.892C469.183 237.993 468.521 238.843 467.569 239.44C466.617 240.019 465.282 240.308 463.565 240.308ZM473.368 240V217.32H479.248C480.779 217.32 482.085 217.497 483.168 217.852C484.269 218.188 485.109 218.795 485.688 219.672C486.285 220.549 486.584 221.763 486.584 223.312C486.584 224.245 486.5 225.076 486.332 225.804C486.183 226.513 485.903 227.139 485.492 227.68C485.1 228.203 484.54 228.623 483.812 228.94L486.948 240H482.216L479.612 229.724H477.988V240H473.368ZM477.988 226.98H479.332C480.079 226.98 480.667 226.859 481.096 226.616C481.525 226.373 481.824 226.009 481.992 225.524C482.179 225.02 482.272 224.404 482.272 223.676C482.272 222.631 482.076 221.837 481.684 221.296C481.311 220.736 480.601 220.456 479.556 220.456H477.988V226.98ZM489.692 240V217.32H492.912L497.952 229.136V217.32H501.76V240H498.68L493.64 227.456V240H489.692ZM505.196 240V217.32H515.08V220.512H509.816V226.532H513.876V229.752H509.816V236.864H515.136V240H505.196ZM520.442 240V231.012L516.018 217.32H520.358L522.794 225.3L525.062 217.32H529.262L524.894 231.012V240H520.442Z" fill="#1E0100"/>
</g>
<defs>
<linearGradient id="paint0_linear_1039_2607" x1="276.844" y1="298.789" x2="276.844" y2="181" gradientUnits="userSpaceOnUse">
<stop stop-color="#830300" stop-opacity="0.88"/>
<stop offset="1" stop-color="#FF5A29" stop-opacity="0"/>
</linearGradient>
<radialGradient id="paint1_radial_1039_2607" cx="0" cy="0" r="1" gradientUnits="userSpaceOnUse" gradientTransform="translate(172.317 230.442) rotate(-52.7394) scale(502.522 502.351)">
<stop offset="0.04" stop-color="#FF440D"/>
<stop offset="0.23" stop-color="#FF7147"/>
<stop offset="0.47" stop-color="#FF6F45"/>
<stop offset="0.73" stop-color="#FF7F59"/>
<stop offset="1" stop-color="#FF8F6D"/>
</radialGradient>
<clipPath id="clip0_1039_2607">
<rect width="552" height="267" fill="white"/>
</clipPath>
</defs>
</svg>
