<svg width="61" height="55" viewBox="0 0 61 55" fill="none" xmlns="http://www.w3.org/2000/svg">
<path d="M5.54545 55C4.02045 55 2.71542 54.4619 1.63036 53.3857C0.543455 52.3078 0 51.0125 0 49.5V16.5C0 14.9875 0.543455 13.6932 1.63036 12.617C2.71542 11.539 4.02045 11 5.54545 11H14.2795L19.4091 5.5H36.0455V16.5H44.3636V24.75H55.4545V49.5C55.4545 51.0125 54.912 52.3078 53.827 53.3857C52.74 54.4619 51.4341 55 49.9091 55H5.54545ZM27.7273 45.375C31.1932 45.375 34.1397 44.1723 36.5667 41.767C38.9919 39.3598 40.2045 36.4375 40.2045 33C40.2045 29.5625 38.9919 26.6402 36.5667 24.233C34.1397 21.8277 31.1932 20.625 27.7273 20.625C24.2614 20.625 21.3149 21.8277 18.8878 24.233C16.4626 26.6402 15.25 29.5625 15.25 33C15.25 36.4375 16.4626 39.3598 18.8878 41.767C21.3149 44.1723 24.2614 45.375 27.7273 45.375ZM27.7273 39.875C25.7864 39.875 24.1458 39.2104 22.8057 37.8812C21.4655 36.5521 20.7955 34.925 20.7955 33C20.7955 31.075 21.4655 29.4479 22.8057 28.1188C24.1458 26.7896 25.7864 26.125 27.7273 26.125C29.6682 26.125 31.3087 26.7896 32.6489 28.1188C33.989 29.4479 34.6591 31.075 34.6591 33C34.6591 34.925 33.989 36.5521 32.6489 37.8812C31.3087 39.2104 29.6682 39.875 27.7273 39.875ZM49.9091 16.5V11H44.3636V5.5H49.9091V0H55.4545V5.5H61V11H55.4545V16.5H49.9091Z" fill="black" fill-opacity="0.22"/>
</svg>
