<svg width="42" height="42" viewBox="0 0 42 42" fill="none" xmlns="http://www.w3.org/2000/svg">
<circle cx="21" cy="21" r="21" fill="#FC8D0B"/>
<g clip-path="url(#clip0_1_6911)">
<path d="M28.9646 19.4641H23.6718C23.6014 19.4594 23.5351 19.4293 23.4852 19.3793C23.4352 19.3294 23.4051 19.2631 23.4004 19.1927V14.0356C23.4203 13.7746 23.3858 13.5124 23.2992 13.2654C23.2125 13.0184 23.0756 12.7921 22.897 12.6008C22.7185 12.4095 22.5021 12.2573 22.2617 12.1538C22.0213 12.0504 21.7621 11.998 21.5004 11.9999C21.2317 11.9949 20.9647 12.0441 20.7155 12.1447C20.4662 12.2452 20.2398 12.395 20.0498 12.585C19.8598 12.7751 19.71 13.0015 19.6095 13.2507C19.5089 13.4999 19.4597 13.7669 19.4646 14.0356V19.3284C19.4599 19.3988 19.4298 19.4652 19.3798 19.5151C19.3299 19.565 19.2636 19.5951 19.1932 19.5999H14.0361C13.7728 19.5683 13.5057 19.5946 13.2536 19.677C13.0016 19.7594 12.7705 19.8958 12.5766 20.0767C12.3828 20.2577 12.2307 20.4788 12.1312 20.7246C12.0317 20.9704 11.987 21.235 12.0004 21.4999C12.0134 22.0356 12.2321 22.5459 12.6111 22.9248C12.9901 23.3038 13.5003 23.5225 14.0361 23.5356H19.3289C19.3993 23.5403 19.4656 23.5705 19.5156 23.6204C19.5655 23.6703 19.5956 23.7366 19.6004 23.807V29.0999C19.5938 29.3511 19.6385 29.6011 19.7317 29.8346C19.8248 30.0681 19.9646 30.2801 20.1423 30.4579C20.3201 30.6356 20.5321 30.7754 20.7656 30.8685C20.9991 30.9617 21.2491 31.0064 21.5004 30.9999C22.0361 30.9868 22.5464 30.7681 22.9253 30.3891C23.3043 30.0102 23.523 29.4999 23.5361 28.9641V23.6713C23.5408 23.6009 23.571 23.5346 23.6209 23.4847C23.6708 23.4347 23.7371 23.4046 23.8075 23.3999H29.1004C29.601 23.3895 30.0783 23.1859 30.4324 22.8319C30.7864 22.4778 30.99 22.0005 31.0004 21.4999C31.0225 21.2269 30.985 20.9524 30.8906 20.6954C30.7961 20.4383 30.6469 20.2049 30.4532 20.0113C30.2596 19.8176 30.0262 19.6684 29.7691 19.5739C29.5121 19.4795 29.2376 19.442 28.9646 19.4641Z" fill="white"/>
</g>
<defs>
<clipPath id="clip0_1_6911">
<rect width="19" height="19" fill="white" transform="translate(12 12)"/>
</clipPath>
</defs>
</svg>
