<svg width="14" height="14" viewBox="0 0 14 14" fill="none" xmlns="http://www.w3.org/2000/svg">
<g clip-path="url(#clip0_1_4717)">
<path fill-rule="evenodd" clip-rule="evenodd" d="M8.38502 10.5391L13.585 5.53905C13.7938 5.30832 13.9312 5.02195 13.9805 4.71469C14.0298 4.40742 13.9888 4.09245 13.8626 3.808C13.7365 3.52354 13.5304 3.2818 13.2696 3.11212C13.0087 2.94244 12.7042 2.8521 12.393 2.85205H1.61102C1.30078 2.85296 0.997431 2.9436 0.737548 3.11304C0.477664 3.28248 0.272343 3.52347 0.146343 3.80697C0.0203435 4.09047 -0.0209554 4.40437 0.0274264 4.71081C0.0758083 5.01725 0.211805 5.30316 0.419018 5.53405L5.61902 10.5391C5.79428 10.7316 6.00782 10.8855 6.24597 10.9907C6.48412 11.096 6.74164 11.1504 7.00202 11.1504C7.2624 11.1504 7.51991 11.096 7.75807 10.9907C7.99622 10.8855 8.20976 10.7316 8.38502 10.5391Z" fill="#6B7280"/>
</g>
<defs>
<clipPath id="clip0_1_4717">
<rect width="14" height="14" fill="white"/>
</clipPath>
</defs>
</svg>
