<svg width="14" height="14" viewBox="0 0 14 14" fill="none" xmlns="http://www.w3.org/2000/svg">
<g clip-path="url(#clip0_1_4945)">
<path d="M13.0581 0.832H9.48313V0.66C9.48313 0.1 9.02113 0 8.45713 0H5.52013C4.95613 0 4.49813 0.1 4.49813 0.66V0.832H0.937126C0.857114 0.831868 0.777863 0.847531 0.703916 0.878089C0.629969 0.908648 0.562781 0.953501 0.506204 1.01008C0.449627 1.06666 0.404773 1.13384 0.374215 1.20779C0.343656 1.28174 0.327994 1.36099 0.328126 1.441V2.617C0.328126 2.77852 0.392288 2.93342 0.506498 3.04763C0.620707 3.16184 0.775609 3.226 0.937126 3.226H13.0581C13.2196 3.226 13.3745 3.16184 13.4888 3.04763C13.603 2.93342 13.6671 2.77852 13.6671 2.617V1.441C13.6671 1.27948 13.603 1.12458 13.4888 1.01037C13.3745 0.896162 13.2196 0.832 13.0581 0.832Z" fill="white"/>
<path d="M11.779 4.84375H2.21401C2.12802 4.84451 2.04317 4.86343 1.96501 4.89929C1.88686 4.93514 1.81717 4.98712 1.76051 5.0518C1.70385 5.11648 1.66151 5.19241 1.63626 5.27461C1.61102 5.35681 1.60343 5.44342 1.61401 5.52875L2.59501 12.9508C2.6316 13.2393 2.77172 13.5047 2.98932 13.6976C3.20692 13.8906 3.48719 13.9979 3.77801 13.9998H10.215C10.5067 13.9992 10.7882 13.8923 11.0068 13.6993C11.2255 13.5062 11.3663 13.2401 11.403 12.9508L12.383 5.52875C12.3938 5.44305 12.3862 5.35605 12.3608 5.2735C12.3354 5.19095 12.2927 5.11476 12.2356 5.04998C12.1784 4.98519 12.1082 4.9333 12.0295 4.89775C11.9508 4.86219 11.8654 4.84378 11.779 4.84375Z" fill="white"/>
</g>
<defs>
<clipPath id="clip0_1_4945">
<rect width="14" height="14" fill="white"/>
</clipPath>
</defs>
</svg>
