<svg width="21" height="18" viewBox="0 0 21 18" fill="none" xmlns="http://www.w3.org/2000/svg">
<path d="M13.1145 8.03067C13.0981 7.37236 12.8157 6.74618 12.3275 6.2853C11.8392 5.82442 11.1836 5.56519 10.5 5.56274L13.1145 8.03067Z" fill="#6B7280"/>
<path d="M8.61 3.94464C9.20306 3.68212 9.84733 3.5442 10.5 3.54006C11.7531 3.54006 12.955 4.01959 13.8411 4.87317C14.7272 5.72674 15.225 6.88443 15.225 8.09157C15.2237 8.62767 15.1205 9.15902 14.9205 9.65931L17.85 12.279C19.1579 11.0812 20.2257 9.66178 21 8.09157C21 8.09157 17.85 1.01145 10.5 1.01145C9.05225 1.00508 7.61996 1.29827 6.3 1.87117L8.61 3.94464ZM2.1 0L1.05 1.01145L3.7275 3.43892C2.15838 4.71931 0.888086 6.30489 0 8.09157C0 8.09157 3.15 15.1717 10.5 15.1717C12.2004 15.1797 13.8756 14.7763 15.372 13.9984L18.9 17.1946L19.95 16.1831L2.1 0ZM10.5 12.6431C9.24685 12.6431 8.04503 12.1635 7.15892 11.31C6.27281 10.4564 5.775 9.2987 5.775 8.09157C5.7808 7.30972 5.99793 6.54281 6.405 5.86639L8.0115 7.32287C7.92451 7.57064 7.87845 7.83003 7.875 8.09157C7.87394 8.50323 7.97765 8.90887 8.17705 9.27297C8.37646 9.63708 8.66548 9.94854 9.01881 10.1801C9.37215 10.4117 9.77902 10.5563 10.2038 10.6013C10.6286 10.6462 11.0584 10.5902 11.4555 10.4381L13.0725 11.9047C12.3079 12.3868 11.4138 12.6434 10.5 12.6431V12.6431Z" fill="#6B7280"/>
</svg>
