<svg width="32" height="32" viewBox="0 0 32 32" fill="none" xmlns="http://www.w3.org/2000/svg">
<path d="M5.33203 21.333L11.4467 15.2183C11.9468 14.7184 12.6249 14.4376 13.332 14.4376C14.0391 14.4376 14.7173 14.7184 15.2174 15.2183L21.332 21.333M18.6654 18.6663L20.78 16.5517C21.2801 16.0518 21.9583 15.7709 22.6654 15.7709C23.3725 15.7709 24.0506 16.0518 24.5507 16.5517L26.6654 18.6663M18.6654 10.6663H18.6787M7.9987 26.6663H23.9987C24.7059 26.6663 25.3842 26.3854 25.8843 25.8853C26.3844 25.3852 26.6654 24.7069 26.6654 23.9997V7.99967C26.6654 7.29243 26.3844 6.61415 25.8843 6.11406C25.3842 5.61396 24.7059 5.33301 23.9987 5.33301H7.9987C7.29145 5.33301 6.61318 5.61396 6.11308 6.11406C5.61298 6.61415 5.33203 7.29243 5.33203 7.99967V23.9997C5.33203 24.7069 5.61298 25.3852 6.11308 25.8853C6.61318 26.3854 7.29145 26.6663 7.9987 26.6663Z" stroke="#fff" stroke-width="2" stroke-linecap="round" stroke-linejoin="round"/>
</svg>
