<svg width="47" height="47" viewBox="0 0 47 47" fill="none" xmlns="http://www.w3.org/2000/svg">
<path d="M47 23.5C47 10.5214 36.4786 0 23.5 0C10.5214 0 0 10.5212 0 23.5C0 35.2294 8.59366 44.9516 19.8281 46.7145V30.293H13.8613V23.5H19.8281V18.3227C19.8281 12.433 23.3366 9.17969 28.7043 9.17969C31.2756 9.17969 33.9648 9.63867 33.9648 9.63867V15.4219H31.0016C28.0821 15.4219 27.1719 17.2334 27.1719 19.0919V23.5H33.6895L32.6476 30.293H27.1719V46.7145C38.4063 44.9516 47 35.2296 47 23.5Z" fill="#FF440D"/>
<path d="M32.6476 30.292L33.6895 23.499H27.1719V19.0909C27.1719 17.2322 28.0823 15.4209 31.0016 15.4209H33.9648V9.6377C33.9648 9.6377 31.2756 9.17871 28.7043 9.17871C23.3366 9.17871 19.8281 12.432 19.8281 18.3217V23.499H13.8613V30.292H19.8281V46.7135C21.0428 46.9039 22.2705 46.9994 23.5 46.999C24.7295 46.9994 25.9572 46.9039 27.1719 46.7135V30.292H32.6476Z" fill="#FFFAE7"/>
</svg>
