<svg width="46" height="47" viewBox="0 0 46 47" fill="none" xmlns="http://www.w3.org/2000/svg">
<path d="M23.0051 11.7519C16.4784 11.7519 11.2139 16.9969 11.2139 23.4993C11.2139 30.0018 16.4784 35.2467 23.0051 35.2467C29.5318 35.2467 34.7963 30.0018 34.7963 23.4993C34.7963 16.9969 29.5318 11.7519 23.0051 11.7519ZM23.0051 31.1367C18.7874 31.1367 15.3393 27.7116 15.3393 23.4993C15.3393 19.287 18.7771 15.862 23.0051 15.862C27.2331 15.862 30.6709 19.287 30.6709 23.4993C30.6709 27.7116 27.2229 31.1367 23.0051 31.1367ZM38.0289 11.2714C38.0289 12.7948 36.7974 14.0114 35.2786 14.0114C33.7496 14.0114 32.5284 12.7846 32.5284 11.2714C32.5284 9.75824 33.7598 8.53136 35.2786 8.53136C36.7974 8.53136 38.0289 9.75824 38.0289 11.2714ZM45.8384 14.0523C45.6639 10.3819 44.8224 7.13067 42.1235 4.45197C39.4348 1.77327 36.1714 0.934905 32.4873 0.750872C28.6904 0.536168 17.3096 0.536168 13.5127 0.750872C9.83882 0.924681 6.57546 1.76305 3.87652 4.44175C1.17758 7.12044 0.346347 10.3717 0.161629 14.0421C-0.0538762 17.825 -0.0538762 29.1634 0.161629 32.9463C0.336085 36.6168 1.17758 39.868 3.87652 42.5467C6.57546 45.2254 9.82856 46.0638 13.5127 46.2478C17.3096 46.4625 28.6904 46.4625 32.4873 46.2478C36.1714 46.074 39.4348 45.2356 42.1235 42.5467C44.8122 39.868 45.6537 36.6168 45.8384 32.9463C46.0539 29.1634 46.0539 17.8352 45.8384 14.0523ZM40.9331 37.0053C40.1326 39.0092 38.583 40.553 36.5614 41.3607C33.5341 42.5569 26.3506 42.2809 23.0051 42.2809C19.6597 42.2809 12.4659 42.5467 9.44886 41.3607C7.43748 40.5632 5.8879 39.0194 5.07719 37.0053C3.87652 33.9892 4.1536 26.8324 4.1536 23.4993C4.1536 20.1663 3.88678 12.9993 5.07719 9.99339C5.87764 7.98948 7.42722 6.44566 9.44886 5.63796C12.4762 4.44175 19.6597 4.71779 23.0051 4.71779C26.3506 4.71779 33.5443 4.45197 36.5614 5.63796C38.5728 6.43543 40.1224 7.97926 40.9331 9.99339C42.1337 13.0095 41.8567 20.1663 41.8567 23.4993C41.8567 26.8324 42.1337 33.9994 40.9331 37.0053Z" fill="#FF440D"/>
</svg>
