<svg width="18" height="18" viewBox="0 0 18 18" fill="none" xmlns="http://www.w3.org/2000/svg">
<path d="M10 1C10 0.447716 9.55229 0 9 0V0C8.44772 0 8 0.447715 8 1V9C8 9.55228 8.44772 10 9 10V10C9.55229 10 10 9.55228 10 9V1ZM15.492 2.79224C15.1359 2.42247 14.5503 2.44965 14.1873 2.81266V2.81266C13.7725 3.22752 13.8156 3.90807 14.2094 4.34296C14.657 4.83718 15.032 5.39495 15.3216 5.9998C15.77 6.93631 16.0018 7.9617 16 9C16 12.87 12.87 16 9 16C7.55522 16.0009 6.14562 15.5543 4.96486 14.7218C3.78409 13.8892 2.89009 12.7114 2.40569 11.3503C1.92129 9.98913 1.87024 8.51137 2.25957 7.12004C2.55051 6.08032 3.0767 5.12699 3.79166 4.33093C4.18123 3.89717 4.22163 3.22163 3.80937 2.80937V2.80937C3.44787 2.44787 2.86507 2.41967 2.50976 2.78725C1.81877 3.50213 1.25046 4.32895 0.830111 5.23463C0.28257 6.41435 -0.00073333 7.69941 1.42556e-06 9C1.46112e-06 11.3869 0.948213 13.6761 2.63604 15.364C4.32387 17.0518 6.61305 18 9 18C11.3869 18 13.6761 17.0518 15.364 15.364C17.0518 13.6761 18 11.3869 18 9C18 6.58629 17.0455 4.40538 15.492 2.79224Z" fill="white"/>
</svg>
