<svg width="49" height="35" viewBox="0 0 49 35" fill="none" xmlns="http://www.w3.org/2000/svg">
<path d="M47.9186 5.71464C47.6376 4.67597 47.0893 3.72904 46.3285 2.96816C45.5676 2.20728 44.6207 1.65898 43.5821 1.37788C39.7795 0.34082 24.4756 0.34082 24.4756 0.34082C24.4756 0.34082 9.17085 0.372211 5.36831 1.40927C4.32962 1.69039 3.38271 2.23871 2.62186 2.99963C1.861 3.76055 1.31277 4.70752 1.03173 5.74622C-0.118446 12.5026 -0.564621 22.7977 1.06332 29.2838C1.34438 30.3225 1.89263 31.2694 2.65348 32.0303C3.41433 32.7912 4.36123 33.3395 5.39989 33.6206C9.20243 34.6577 24.5068 34.6577 24.5068 34.6577C24.5068 34.6577 39.8109 34.6577 43.6133 33.6206C44.652 33.3395 45.5989 32.7913 46.3598 32.0304C47.1207 31.2695 47.6689 30.3225 47.95 29.2838C49.1632 22.5179 49.537 12.2293 47.9186 5.71483V5.71464Z" fill="#FF440D"/>
<path d="M19.6045 24.8526L32.3003 17.4991L19.6045 10.1455V24.8526Z" fill="#FFFAE7"/>
</svg>
